<svg xmlns="http://www.w3.org/2000/svg" xmlns:xlink="http://www.w3.org/1999/xlink" width="40" zoomAndPan="magnify" viewBox="0 0 30 30.000001" height="40" preserveAspectRatio="xMidYMid meet" version="1.0"><defs><filter x="0%" y="0%" width="100%" height="100%" id="0e8fd764f5"><feColorMatrix values="0 0 0 0 1 0 0 0 0 1 0 0 0 0 1 0 0 0 1 0" color-interpolation-filters="sRGB"/></filter><g/><clipPath id="63b4dc1d84"><path d="M 3 0 L 28 0 L 28 29.03125 L 3 29.03125 Z M 3 0 " clip-rule="nonzero"/></clipPath><mask id="0dd6cb948d"><g filter="url(#0e8fd764f5)"><rect x="-3" width="36" fill="#000000" y="-3" height="36.000001" fill-opacity="0.91"/></g></mask><clipPath id="235154214c"><path d="M 0.65625 0 L 24.605469 0 L 24.605469 29.03125 L 0.65625 29.03125 Z M 0.65625 0 " clip-rule="nonzero"/></clipPath><clipPath id="338bff8e99"><rect x="0" width="25" y="0" height="30"/></clipPath></defs><g fill="#ffffff" fill-opacity="1"><g transform="translate(14.460181, 14.879034)"><g><path d="M 0.796875 0 L 0.765625 -0.140625 C 0.710938 -0.078125 0.660156 -0.0351562 0.609375 -0.015625 C 0.554688 0.00390625 0.492188 0.015625 0.421875 0.015625 C 0.316406 0.015625 0.234375 -0.0078125 0.171875 -0.0625 C 0.117188 -0.113281 0.09375 -0.1875 0.09375 -0.28125 C 0.09375 -0.488281 0.257812 -0.597656 0.59375 -0.609375 L 0.765625 -0.625 L 0.765625 -0.6875 C 0.765625 -0.769531 0.742188 -0.828125 0.703125 -0.859375 C 0.671875 -0.898438 0.617188 -0.921875 0.546875 -0.921875 C 0.460938 -0.921875 0.363281 -0.894531 0.25 -0.84375 L 0.203125 -0.96875 C 0.253906 -0.988281 0.3125 -1.003906 0.375 -1.015625 C 0.4375 -1.035156 0.5 -1.046875 0.5625 -1.046875 C 0.675781 -1.046875 0.765625 -1.019531 0.828125 -0.96875 C 0.890625 -0.914062 0.921875 -0.828125 0.921875 -0.703125 L 0.921875 0 Z M 0.453125 -0.109375 C 0.546875 -0.109375 0.617188 -0.132812 0.671875 -0.1875 C 0.734375 -0.238281 0.765625 -0.316406 0.765625 -0.421875 L 0.765625 -0.515625 L 0.609375 -0.5 C 0.484375 -0.5 0.390625 -0.476562 0.328125 -0.4375 C 0.273438 -0.40625 0.25 -0.351562 0.25 -0.28125 C 0.25 -0.226562 0.265625 -0.1875 0.296875 -0.15625 C 0.335938 -0.125 0.390625 -0.109375 0.453125 -0.109375 Z M 0.453125 -0.109375 "/></g></g></g><g clip-path="url(#63b4dc1d84)"><g mask="url(#0dd6cb948d)"><g transform="matrix(1, 0, 0, 1, 3, 0.000000000000005692)"><g clip-path="url(#338bff8e99)"><path fill="#00ec6a" d="M 12.765625 27.234375 L 9.945312 25.382812 C 5.109375 22.113281 2.140625 16.695312 2.140625 10.953125 L 2.140625 7.242188 C 5.4375 6.773438 8.550781 5.386719 11.191406 3.210938 L 12.585938 1.972656 L 13.980469 3.210938 C 16.472656 5.386719 19.589844 6.773438 22.882812 7.242188 L 23.03125 7.242188 L 23.03125 10.953125 C 23.03125 16.695312 20.210938 22.113281 15.226562 25.382812 Z M 12.765625 27.234375 " fill-opacity="1" fill-rule="nonzero"/><g clip-path="url(#235154214c)"><path fill="#14c962" d="M 9.144531 26.589844 C 3.832031 23.027344 0.6875 17.167969 0.6875 10.953125 L 0.6875 5.949219 L 1.933594 5.769531 C 4.929688 5.359375 7.78125 4.0625 10.242188 2.089844 L 12.617188 0 L 15.019531 2.121094 C 17.273438 4.0625 20.03125 5.328125 23.03125 5.769531 L 24.574219 5.769531 L 24.574219 10.953125 C 24.574219 17.285156 21.425781 23.113281 16.144531 26.558594 L 12.824219 29.03125 Z M 9.144531 26.589844 " fill-opacity="1" fill-rule="nonzero"/></g><path fill="#00ec6a" d="M 12.765625 27.234375 L 9.945312 25.382812 C 5.109375 22.113281 2.140625 16.695312 2.140625 10.953125 L 2.140625 7.242188 C 5.4375 6.773438 8.550781 5.386719 11.191406 3.210938 L 12.585938 1.972656 L 13.980469 3.210938 C 16.472656 5.386719 19.589844 6.773438 22.882812 7.242188 L 23.03125 7.242188 L 23.03125 10.953125 C 23.03125 16.695312 20.210938 22.113281 15.226562 25.382812 Z M 12.765625 27.234375 " fill-opacity="1" fill-rule="nonzero"/><path fill="#ffffff" d="M 11.992188 18.402344 C 11.992188 18.402344 11.84375 18.402344 11.992188 18.402344 C 11.519531 18.402344 11.222656 18.253906 10.894531 17.933594 L 7.304688 14.515625 C 6.832031 14.046875 6.832031 13.132812 7.304688 12.660156 C 7.78125 12.191406 8.699219 12.191406 9.175781 12.660156 L 11.816406 14.988281 L 16.355469 10.660156 C 16.828125 10.1875 17.75 10.1875 18.222656 10.660156 C 18.699219 11.128906 18.699219 12.042969 18.222656 12.515625 L 12.765625 18.078125 C 12.617188 18.253906 12.289062 18.402344 11.992188 18.402344 Z M 11.992188 18.402344 " fill-opacity="1" fill-rule="nonzero"/></g></g></g></g></svg>