<svg xmlns="http://www.w3.org/2000/svg" xmlns:xlink="http://www.w3.org/1999/xlink" width="40" zoomAndPan="magnify" viewBox="0 0 30 30.000001" height="40" preserveAspectRatio="xMidYMid meet" version="1.0"><defs><g/><clipPath id="acd46f375a"><path d="M 19 14 L 29.515625 14 L 29.515625 22.886719 L 19 22.886719 Z M 19 14 " clip-rule="nonzero"/></clipPath><clipPath id="f3370a0d28"><path d="M 0.484375 4.742188 L 25 4.742188 L 25 21 L 0.484375 21 Z M 0.484375 4.742188 " clip-rule="nonzero"/></clipPath></defs><g clip-path="url(#acd46f375a)"><path fill="#009a4b" d="M 24.445312 22.871094 C 24.308594 22.871094 24.179688 22.816406 24.085938 22.71875 L 20.738281 19.300781 C 19.398438 17.9375 19.726562 16.179688 20.738281 15.148438 C 21.265625 14.609375 21.9375 14.289062 22.636719 14.246094 C 23.28125 14.207031 23.898438 14.40625 24.445312 14.824219 C 24.988281 14.402344 25.609375 14.207031 26.253906 14.246094 C 26.953125 14.289062 27.628906 14.609375 28.152344 15.148438 C 29.160156 16.179688 29.488281 17.9375 28.152344 19.300781 L 24.804688 22.71875 C 24.710938 22.816406 24.578125 22.871094 24.445312 22.871094 Z M 22.789062 15.28125 C 22.757812 15.28125 22.726562 15.28125 22.695312 15.28125 C 22.25 15.308594 21.800781 15.523438 21.457031 15.875 C 21.113281 16.226562 20.894531 16.691406 20.875 17.136719 C 20.84375 17.644531 21.050781 18.136719 21.460938 18.558594 L 24.449219 21.605469 L 27.4375 18.558594 C 28.347656 17.628906 28.09375 16.546875 27.4375 15.875 C 26.78125 15.207031 25.71875 14.953125 24.808594 15.875 C 24.609375 16.082031 24.285156 16.082031 24.089844 15.875 C 23.703125 15.480469 23.261719 15.277344 22.792969 15.277344 Z M 22.789062 15.28125 " fill-opacity="1" fill-rule="nonzero"/></g><g clip-path="url(#f3370a0d28)"><path fill="#bcbec0" d="M 14.996094 20.207031 C 14.996094 20.207031 14.957031 20.207031 14.941406 20.207031 C 14.730469 20.1875 14.5625 20.035156 14.503906 19.824219 L 12.835938 13.507812 L 11.445312 16.144531 C 11.347656 16.335938 11.140625 16.441406 10.9375 16.414062 C 10.730469 16.386719 10.558594 16.238281 10.503906 16.03125 L 8.800781 9.582031 L 6.089844 13.902344 C 5.996094 14.050781 5.835938 14.136719 5.660156 14.136719 L 0.992188 14.136719 C 0.710938 14.136719 0.484375 13.90625 0.484375 13.621094 C 0.484375 13.335938 0.710938 13.101562 0.992188 13.101562 L 5.378906 13.101562 L 8.5625 8.03125 C 8.675781 7.855469 8.871094 7.765625 9.070312 7.796875 C 9.273438 7.832031 9.429688 7.976562 9.484375 8.175781 L 11.148438 14.496094 L 12.539062 11.855469 C 12.640625 11.667969 12.84375 11.558594 13.046875 11.585938 C 13.253906 11.613281 13.429688 11.765625 13.480469 11.96875 L 15.144531 18.261719 L 21.875 5.035156 C 21.96875 4.851562 22.160156 4.738281 22.367188 4.753906 C 22.574219 4.769531 22.746094 4.910156 22.8125 5.105469 L 24.808594 11.175781 C 24.898438 11.445312 24.757812 11.742188 24.488281 11.835938 C 24.21875 11.925781 23.933594 11.78125 23.84375 11.503906 L 22.222656 6.601562 L 15.445312 19.921875 C 15.355469 20.09375 15.179688 20.203125 14.988281 20.203125 Z M 14.996094 20.207031 " fill-opacity="1" fill-rule="nonzero"/></g><g fill="#ffffff" fill-opacity="1"><g transform="translate(6.331148, 15.774196)"><g><path d="M 0.796875 0 L 0.765625 -0.140625 C 0.710938 -0.078125 0.660156 -0.0351562 0.609375 -0.015625 C 0.554688 0.00390625 0.492188 0.015625 0.421875 0.015625 C 0.316406 0.015625 0.234375 -0.0078125 0.171875 -0.0625 C 0.117188 -0.113281 0.09375 -0.1875 0.09375 -0.28125 C 0.09375 -0.488281 0.257812 -0.597656 0.59375 -0.609375 L 0.765625 -0.625 L 0.765625 -0.6875 C 0.765625 -0.769531 0.742188 -0.828125 0.703125 -0.859375 C 0.671875 -0.898438 0.617188 -0.921875 0.546875 -0.921875 C 0.460938 -0.921875 0.363281 -0.894531 0.25 -0.84375 L 0.203125 -0.96875 C 0.253906 -0.988281 0.3125 -1.003906 0.375 -1.015625 C 0.4375 -1.035156 0.5 -1.046875 0.5625 -1.046875 C 0.675781 -1.046875 0.765625 -1.019531 0.828125 -0.96875 C 0.890625 -0.914062 0.921875 -0.828125 0.921875 -0.703125 L 0.921875 0 Z M 0.453125 -0.109375 C 0.546875 -0.109375 0.617188 -0.132812 0.671875 -0.1875 C 0.734375 -0.238281 0.765625 -0.316406 0.765625 -0.421875 L 0.765625 -0.515625 L 0.609375 -0.5 C 0.484375 -0.5 0.390625 -0.476562 0.328125 -0.4375 C 0.273438 -0.40625 0.25 -0.351562 0.25 -0.28125 C 0.25 -0.226562 0.265625 -0.1875 0.296875 -0.15625 C 0.335938 -0.125 0.390625 -0.109375 0.453125 -0.109375 Z M 0.453125 -0.109375 "/></g></g></g></svg>