<svg xmlns="http://www.w3.org/2000/svg" xmlns:xlink="http://www.w3.org/1999/xlink" width="40" zoomAndPan="magnify" viewBox="0 0 30 30.000001" height="40" preserveAspectRatio="xMidYMid meet" version="1.0"><defs><g/><clipPath id="e23e78595a"><path d="M 0.484375 5 L 6 5 L 6 16 L 0.484375 16 Z M 0.484375 5 " clip-rule="nonzero"/></clipPath><clipPath id="b7955a5a09"><path d="M 25 5 L 29.515625 5 L 29.515625 16 L 25 16 Z M 25 5 " clip-rule="nonzero"/></clipPath><clipPath id="ae4d1f8356"><path d="M 0.484375 4 L 15 4 L 15 29.03125 L 0.484375 29.03125 Z M 0.484375 4 " clip-rule="nonzero"/></clipPath><clipPath id="1850fd684e"><path d="M 16 4 L 29.515625 4 L 29.515625 29.03125 L 16 29.03125 Z M 16 4 " clip-rule="nonzero"/></clipPath></defs><g clip-path="url(#e23e78595a)"><path fill="#f5bfa9" d="M 1.738281 5.457031 C 1.988281 5.542969 2.285156 5.769531 2.472656 6.171875 C 2.660156 6.578125 2.738281 7.160156 2.800781 7.785156 C 2.863281 8.414062 2.910156 9.085938 3.019531 9.726562 C 3.125 10.367188 3.292969 10.976562 3.726562 11.777344 C 4.160156 12.574219 4.863281 13.566406 5.070312 14.191406 C 5.277344 14.8125 4.988281 15.070312 4.644531 15.085938 C 4.300781 15.105469 3.902344 14.890625 3.40625 13.972656 C 2.910156 13.054688 2.320312 11.433594 1.882812 9.9375 C 1.445312 8.441406 1.160156 7.074219 1.050781 6.351562 C 0.941406 5.632812 1.003906 5.554688 1.140625 5.492188 C 1.277344 5.425781 1.484375 5.371094 1.738281 5.457031 Z M 1.738281 5.457031 " fill-opacity="1" fill-rule="evenodd"/></g><g clip-path="url(#b7955a5a09)"><path fill="#f5bfa9" d="M 29.265625 5.457031 C 29.015625 5.542969 28.71875 5.769531 28.53125 6.171875 C 28.34375 6.578125 28.265625 7.160156 28.203125 7.785156 C 28.140625 8.414062 28.09375 9.085938 27.988281 9.726562 C 27.878906 10.367188 27.714844 10.976562 27.277344 11.777344 C 26.84375 12.574219 26.140625 13.566406 25.933594 14.191406 C 25.726562 14.8125 26.015625 15.070312 26.359375 15.085938 C 26.703125 15.105469 27.101562 14.890625 27.597656 13.972656 C 28.09375 13.054688 28.683594 11.433594 29.121094 9.9375 C 29.558594 8.441406 29.84375 7.074219 29.953125 6.351562 C 30.0625 5.632812 30 5.554688 29.863281 5.492188 C 29.726562 5.425781 29.519531 5.371094 29.265625 5.457031 Z M 29.265625 5.457031 " fill-opacity="1" fill-rule="evenodd"/></g><path fill="#eb4452" d="M 15.5 5.039062 C 17.175781 1.679688 18.851562 0 22.203125 0 C 25.902344 0 28.90625 3.011719 28.90625 6.71875 C 28.90625 13.433594 22.203125 16.15625 15.5 22.871094 C 8.800781 16.15625 2.097656 13.433594 2.097656 6.71875 C 2.097656 3.011719 5.101562 0 8.800781 0 C 12.152344 0 13.828125 1.679688 15.5 5.039062 Z M 15.5 5.039062 " fill-opacity="1" fill-rule="nonzero"/><path fill="#d24656" d="M 28.425781 5.796875 C 28.425781 12.640625 21.660156 15.449219 14.835938 22.214844 C 15.058594 22.429688 15.277344 22.648438 15.5 22.871094 C 22.203125 16.15625 28.90625 13.433594 28.90625 6.71875 C 28.90625 5.441406 28.550781 4.246094 27.933594 3.230469 C 28.25 4.023438 28.425781 4.890625 28.425781 5.796875 Z M 28.425781 5.796875 " fill-opacity="1" fill-rule="evenodd"/><path fill="#d24656" d="M 14.820312 5.875 C 14.824219 6.15625 14.894531 6.164062 14.992188 5.980469 C 15.074219 5.832031 15.226562 5.546875 15.488281 5.011719 C 14.015625 2.070312 12.542969 0.425781 9.929688 0.0703125 C 12.660156 0.855469 14.796875 4.070312 14.820312 5.875 Z M 14.820312 5.875 " fill-opacity="1" fill-rule="evenodd"/><path fill="#ef707e" d="M 9.804688 0.628906 C 7.320312 0.917969 5.207031 2.140625 3.464844 4.296875 C 4.664062 1.839844 6.773438 0.617188 9.804688 0.628906 Z M 9.804688 0.628906 " fill-opacity="1" fill-rule="evenodd"/><path fill="#ef707e" d="M 24.234375 1.140625 C 21.746094 0.890625 19.421875 1.632812 17.257812 3.367188 C 18.953125 1.222656 21.277344 0.480469 24.234375 1.140625 Z M 24.234375 1.140625 " fill-opacity="1" fill-rule="evenodd"/><path fill="#ef707e" d="M 16.921875 6.816406 C 17.167969 7.421875 18.894531 7.707031 19.433594 7.511719 C 19.449219 7.503906 19.46875 7.492188 19.484375 7.488281 L 19.742188 7.386719 C 19.726562 7.933594 19.753906 8.074219 19.617188 8.585938 C 19.289062 8.613281 19.15625 8.539062 18.96875 8.578125 C 18.621094 8.652344 18.855469 8.730469 18.347656 8.636719 C 17.867188 8.546875 17.578125 8.269531 17.171875 8.4375 L 17.148438 8.886719 C 16.410156 8.839844 16.507812 8.519531 15.460938 8.292969 C 15.644531 7.34375 15.671875 7.507812 14.285156 7.707031 C 13.859375 7.769531 13.800781 7.886719 13.484375 8.03125 C 13.175781 8.179688 12.902344 8.210938 12.832031 7.898438 C 13.097656 7.789062 13.472656 7.828125 13.652344 7.453125 L 13.699219 7.21875 C 13.757812 6.929688 13.851562 6.917969 14.039062 6.777344 C 14.398438 6.507812 14.128906 6.6875 14.269531 6.335938 C 15.46875 6.292969 16.492188 5.757812 16.921875 6.816406 Z M 15.5 5.039062 C 15.6875 4.664062 15.875 4.3125 16.066406 3.980469 C 16.109375 3.960938 16.152344 3.9375 16.214844 3.921875 C 18.648438 3.234375 17.738281 3.195312 16.511719 3.238281 C 17.082031 2.359375 17.683594 1.660156 18.378906 1.140625 C 19.726562 1.246094 21.449219 1.242188 23.414062 0.113281 C 26.535156 0.683594 28.90625 3.425781 28.90625 6.71875 C 28.90625 8.8125 28.253906 10.519531 27.15625 12.078125 C 26.953125 11.65625 26.761719 11.21875 26.679688 10.910156 C 26.441406 10.152344 26.097656 10.210938 25.242188 9.519531 C 24.890625 9.464844 22.089844 8.6875 22.042969 8.695312 C 21.871094 9.984375 23.457031 9.308594 24.261719 10.242188 L 23.839844 11.027344 C 23.621094 11.320312 23.359375 11.328125 23.144531 11.535156 C 22.921875 11.742188 23.265625 11.605469 22.84375 11.839844 C 22.519531 12.015625 21.976562 12.339844 21.613281 12.414062 C 21.375 11.917969 21.367188 11.355469 20.890625 10.902344 C 20.65625 10.679688 20.753906 10.824219 20.636719 10.472656 C 20.539062 10.171875 20.535156 10.226562 20.355469 10.011719 C 20.234375 9.867188 20.179688 9.75 20.050781 9.5625 C 19.710938 9.078125 19.613281 9.417969 19.34375 8.933594 L 20.195312 10.472656 C 20.378906 10.71875 20.285156 10.816406 20.414062 11.078125 C 20.542969 11.335938 20.578125 11.207031 20.738281 11.578125 C 20.945312 12.0625 21.367188 11.984375 21.527344 12.4375 C 21.640625 12.761719 21.378906 12.421875 21.777344 12.871094 C 22.179688 12.722656 22.613281 12.597656 22.988281 12.460938 C 22.964844 13.085938 22.625 14.074219 22.277344 14.433594 L 21.390625 15.503906 C 21.015625 15.964844 20.957031 16.578125 21.207031 17.140625 L 21.328125 17.710938 C 20 18.808594 18.574219 19.984375 17.125 21.320312 C 17.09375 21.269531 17.0625 21.21875 17.035156 21.171875 C 16.949219 21.011719 16.941406 20.851562 16.894531 20.640625 C 16.660156 19.578125 16.15625 19.375 16.351562 18.441406 C 16.515625 17.65625 16.632812 18.300781 16.480469 17.378906 C 16.429688 17.0625 16.550781 17.25 16.371094 16.867188 C 16.171875 16.433594 15.632812 15.726562 15.640625 15.542969 C 15.699219 14.519531 15.933594 15.089844 15.535156 14.464844 L 14.992188 14.542969 L 14.8125 14.15625 C 14.03125 14.082031 14.058594 14.429688 13.636719 14.5 C 12.175781 14.75 10.601562 13.410156 10.929688 12.257812 C 11.164062 11.425781 10.621094 11.476562 11.019531 10.691406 C 11.664062 9.417969 11.429688 10.074219 11.921875 9.480469 C 12.21875 9.125 11.957031 9.050781 12.191406 8.699219 C 12.230469 8.640625 13.246094 7.828125 12.457031 7.746094 C 12.421875 7.742188 12.257812 7.765625 12.214844 7.773438 L 12.277344 6.566406 C 12.3125 6.265625 12.550781 6.359375 12.832031 6.371094 C 12.917969 6.375 13.117188 6.378906 13.199219 6.367188 C 13.515625 6.3125 13.621094 5.957031 13.410156 5.667969 C 13.140625 5.292969 13.140625 5.683594 12.976562 5.34375 L 13.550781 5.097656 C 13.84375 4.980469 14.023438 4.820312 14.261719 4.59375 C 14.722656 4.15625 14.828125 4.027344 14.949219 4 C 15.136719 4.328125 15.320312 4.671875 15.5 5.039062 Z M 2.121094 7.410156 C 2.105469 7.183594 2.097656 6.953125 2.097656 6.71875 C 2.097656 6.101562 2.179688 5.507812 2.335938 4.9375 C 2.707031 4.304688 3.121094 3.695312 3.574219 3.121094 L 3.875 3.382812 C 3.703125 3.613281 3.695312 3.90625 4.066406 3.808594 C 4.269531 3.753906 4.398438 3.523438 4.546875 3.398438 L 4.707031 4.273438 C 5.574219 6.015625 1.59375 6.722656 2.296875 7.355469 C 2.234375 7.371094 2.175781 7.390625 2.121094 7.410156 Z M 6.238281 0.511719 C 7.027344 0.183594 7.890625 0 8.800781 0 C 9.921875 0 10.855469 0.1875 11.664062 0.566406 C 11.253906 1.011719 10.535156 1.398438 10.019531 1.546875 L 8.5 2.21875 C 8.285156 2.3125 7.4375 3.121094 7.363281 3.253906 L 6.886719 3.230469 C 6.152344 1.351562 7.34375 2.363281 6.792969 0.546875 C 6.554688 0.492188 6.378906 0.484375 6.238281 0.511719 Z M 3.800781 2.84375 C 4.222656 2.335938 4.679688 1.851562 5.167969 1.398438 C 5.308594 1.726562 5.457031 3.1875 3.800781 2.84375 Z M 3.800781 2.84375 " fill-opacity="1" fill-rule="evenodd"/><path fill="#e86374" d="M 28.425781 5.796875 C 28.425781 7.871094 27.800781 9.574219 26.746094 11.128906 C 26.847656 11.410156 26.996094 11.75 27.15625 12.078125 C 27.203125 12.007812 27.253906 11.9375 27.300781 11.867188 L 27.320312 11.835938 C 27.367188 11.765625 27.414062 11.699219 27.457031 11.628906 L 27.476562 11.597656 C 27.519531 11.527344 27.5625 11.457031 27.605469 11.390625 L 27.621094 11.359375 C 27.664062 11.289062 27.707031 11.21875 27.746094 11.144531 L 27.761719 11.117188 C 27.800781 11.046875 27.839844 10.972656 27.878906 10.898438 L 27.890625 10.878906 C 27.933594 10.800781 27.972656 10.722656 28.011719 10.644531 L 28.019531 10.625 C 28.058594 10.546875 28.09375 10.472656 28.128906 10.394531 L 28.136719 10.371094 C 28.171875 10.292969 28.207031 10.21875 28.238281 10.140625 L 28.25 10.117188 C 28.28125 10.039062 28.3125 9.957031 28.339844 9.878906 L 28.347656 9.859375 C 28.378906 9.777344 28.410156 9.695312 28.4375 9.613281 L 28.441406 9.597656 C 28.46875 9.515625 28.5 9.429688 28.527344 9.339844 L 28.527344 9.328125 C 28.554688 9.242188 28.578125 9.160156 28.601562 9.074219 L 28.609375 9.058594 C 28.628906 8.96875 28.652344 8.886719 28.671875 8.796875 L 28.675781 8.78125 C 28.695312 8.695312 28.714844 8.605469 28.734375 8.515625 L 28.734375 8.503906 C 28.753906 8.410156 28.769531 8.320312 28.785156 8.222656 C 28.800781 8.128906 28.816406 8.03125 28.828125 7.933594 L 28.832031 7.929688 C 28.839844 7.832031 28.851562 7.738281 28.863281 7.640625 L 28.863281 7.632812 C 28.871094 7.535156 28.878906 7.441406 28.886719 7.34375 L 28.886719 7.332031 C 28.894531 7.234375 28.898438 7.132812 28.902344 7.035156 L 28.902344 7.027344 C 28.902344 6.925781 28.90625 6.820312 28.90625 6.71875 L 28.90625 6.714844 C 28.90625 6.667969 28.90625 6.621094 28.902344 6.574219 L 28.902344 6.554688 C 28.902344 6.507812 28.902344 6.460938 28.898438 6.414062 L 28.898438 6.402344 C 28.894531 6.359375 28.894531 6.3125 28.890625 6.265625 L 28.890625 6.253906 C 28.886719 6.207031 28.882812 6.160156 28.878906 6.113281 L 28.878906 6.097656 C 28.875 6.054688 28.871094 6.007812 28.863281 5.964844 L 28.863281 5.953125 C 28.859375 5.90625 28.851562 5.863281 28.847656 5.816406 L 28.84375 5.800781 C 28.839844 5.753906 28.832031 5.707031 28.824219 5.660156 L 28.820312 5.65625 C 28.816406 5.609375 28.808594 5.566406 28.796875 5.519531 L 28.796875 5.507812 C 28.789062 5.460938 28.78125 5.414062 28.769531 5.371094 L 28.769531 5.359375 C 28.757812 5.316406 28.75 5.269531 28.742188 5.226562 L 28.738281 5.21875 C 28.726562 5.171875 28.714844 5.125 28.707031 5.082031 L 28.703125 5.070312 C 28.691406 5.027344 28.679688 4.980469 28.667969 4.933594 C 28.652344 4.886719 28.640625 4.84375 28.628906 4.796875 L 28.625 4.789062 C 28.609375 4.742188 28.597656 4.699219 28.585938 4.652344 L 28.582031 4.652344 C 28.570312 4.605469 28.550781 4.5625 28.539062 4.519531 L 28.535156 4.511719 C 28.519531 4.46875 28.503906 4.421875 28.488281 4.378906 L 28.488281 4.371094 C 28.46875 4.328125 28.453125 4.285156 28.4375 4.242188 L 28.433594 4.238281 C 28.417969 4.195312 28.398438 4.152344 28.382812 4.109375 L 28.378906 4.105469 C 28.339844 4.015625 28.304688 3.929688 28.261719 3.84375 L 28.261719 3.839844 C 28.21875 3.753906 28.175781 3.667969 28.132812 3.582031 C 28.109375 3.539062 28.085938 3.5 28.0625 3.457031 C 28.019531 3.382812 27.980469 3.304688 27.933594 3.234375 C 28.25 4.023438 28.425781 4.890625 28.425781 5.796875 Z M 21.082031 16.730469 C 19.742188 17.839844 18.296875 19.015625 16.816406 20.347656 C 16.84375 20.4375 16.871094 20.535156 16.894531 20.640625 C 16.941406 20.851562 16.949219 21.011719 17.035156 21.171875 C 17.0625 21.21875 17.09375 21.269531 17.125 21.320312 L 17.125 21.316406 C 17.191406 21.253906 17.261719 21.195312 17.328125 21.132812 C 17.367188 21.097656 17.40625 21.0625 17.445312 21.027344 C 17.40625 21.0625 17.367188 21.097656 17.328125 21.132812 Z M 17.625 20.863281 C 17.671875 20.820312 17.714844 20.78125 17.761719 20.738281 C 17.820312 20.6875 17.878906 20.632812 17.941406 20.582031 C 17.984375 20.542969 18.023438 20.507812 18.066406 20.46875 C 18.125 20.417969 18.183594 20.367188 18.242188 20.316406 C 18.289062 20.273438 18.335938 20.234375 18.378906 20.191406 C 18.4375 20.140625 18.496094 20.089844 18.554688 20.039062 C 18.597656 20.003906 18.636719 19.96875 18.675781 19.933594 C 18.742188 19.882812 18.800781 19.828125 18.863281 19.773438 C 18.90625 19.738281 18.945312 19.703125 18.988281 19.667969 C 19.046875 19.617188 19.109375 19.5625 19.167969 19.511719 C 19.210938 19.480469 19.25 19.445312 19.289062 19.414062 C 19.351562 19.359375 19.414062 19.304688 19.480469 19.25 L 19.589844 19.15625 C 19.652344 19.101562 19.71875 19.046875 19.78125 18.996094 L 19.878906 18.914062 C 19.949219 18.855469 20.019531 18.796875 20.089844 18.738281 L 20.164062 18.675781 C 20.242188 18.613281 20.316406 18.550781 20.390625 18.488281 L 20.457031 18.433594 C 20.535156 18.367188 20.617188 18.300781 20.695312 18.234375 L 20.746094 18.191406 C 20.835938 18.117188 20.921875 18.046875 21.007812 17.976562 L 21.015625 17.96875 L 21.203125 17.8125 L 21.269531 17.761719 L 21.296875 17.738281 L 21.328125 17.710938 L 21.207031 17.140625 C 21.148438 17.007812 21.105469 16.867188 21.082031 16.730469 Z M 17.625 20.863281 C 17.566406 20.914062 17.503906 20.972656 17.445312 21.027344 Z M 17.625 20.863281 " fill-opacity="1" fill-rule="evenodd"/><g clip-path="url(#ae4d1f8356)"><path fill="#fddbca" d="M 13.582031 25.570312 C 13.191406 22.75 13.253906 21.105469 12.59375 19.703125 C 11.933594 18.300781 10.554688 17.140625 9.53125 16.3125 C 8.511719 15.480469 7.851562 14.976562 7.324219 14.097656 C 6.796875 13.214844 6.402344 11.957031 5.996094 11.082031 C 5.589844 10.203125 5.167969 9.699219 4.746094 9.558594 C 4.320312 9.417969 3.890625 9.636719 3.777344 10.214844 C 3.65625 10.796875 3.851562 11.742188 4.097656 12.484375 C 4.34375 13.230469 4.644531 13.773438 4.679688 13.898438 C 4.714844 14.027344 4.488281 13.734375 4.105469 13.152344 C 3.726562 12.570312 3.191406 11.699219 2.832031 10.792969 C 2.472656 9.886719 2.285156 8.945312 2.164062 7.9375 C 2.046875 6.925781 1.988281 5.851562 1.636719 5.199219 C 1.277344 4.550781 0.621094 4.324219 0.441406 5.363281 C 0.257812 6.402344 0.550781 8.703125 0.886719 10.683594 C 1.222656 12.660156 1.597656 14.320312 1.972656 15.460938 C 2.351562 16.597656 2.726562 17.21875 3.390625 17.925781 C 4.050781 18.632812 5.003906 19.425781 5.816406 20.027344 C 6.632812 20.625 7.308594 21.03125 7.871094 21.824219 C 8.429688 22.613281 8.875 23.789062 9.214844 25.550781 C 9.394531 26.472656 9.542969 27.5625 9.644531 28.585938 L 14.167969 29.03125 C 14.007812 28.144531 13.6875 26.34375 13.582031 25.570312 Z M 13.582031 25.570312 " fill-opacity="1" fill-rule="evenodd"/></g><path fill="#fff4e9" d="M 3.957031 10.347656 C 3.984375 10.007812 4.195312 9.804688 4.351562 9.703125 C 4.507812 9.605469 4.613281 9.617188 4.757812 9.683594 C 4.902344 9.746094 5.082031 9.867188 5.25 10.109375 C 5.421875 10.351562 5.582031 10.714844 5.648438 10.921875 C 5.710938 11.125 5.679688 11.175781 5.460938 11.289062 C 5.242188 11.402344 4.832031 11.582031 4.601562 11.644531 C 4.367188 11.710938 4.3125 11.664062 4.203125 11.410156 C 4.09375 11.152344 3.933594 10.683594 3.957031 10.347656 Z M 3.957031 10.347656 " fill-opacity="1" fill-rule="evenodd"/><path fill="#f5bfa9" d="M 5.097656 12.761719 C 5.3125 12.671875 5.71875 12.5 5.925781 12.421875 C 6.136719 12.34375 6.148438 12.355469 6.011719 12.429688 C 5.871094 12.503906 5.585938 12.640625 5.363281 12.722656 C 5.144531 12.804688 4.992188 12.839844 4.925781 12.847656 C 4.859375 12.859375 4.882812 12.851562 5.097656 12.761719 Z M 5.097656 12.761719 " fill-opacity="1" fill-rule="evenodd"/><path fill="#f5bfa9" d="M 3.609375 12.355469 C 3.917969 13.007812 4.367188 13.867188 4.6875 14.398438 C 5.070312 15.027344 5.273438 15.191406 5.363281 15.234375 C 5.457031 15.277344 5.4375 15.195312 5.308594 14.96875 C 5.179688 14.746094 4.941406 14.375 4.617188 13.742188 L 4.613281 13.734375 C 4.648438 13.8125 4.671875 13.871094 4.679688 13.898438 C 4.714844 14.027344 4.488281 13.734375 4.105469 13.152344 C 3.957031 12.925781 3.785156 12.65625 3.609375 12.355469 Z M 3.609375 12.355469 " fill-opacity="1" fill-rule="evenodd"/><path fill="#f5bfa9" d="M 5.34375 13.277344 C 5.558594 13.1875 5.960938 13.015625 6.171875 12.9375 C 6.378906 12.855469 6.390625 12.867188 6.253906 12.941406 C 6.117188 13.015625 5.828125 13.152344 5.609375 13.238281 C 5.386719 13.320312 5.234375 13.351562 5.171875 13.363281 C 5.105469 13.375 5.128906 13.367188 5.34375 13.277344 Z M 5.34375 13.277344 " fill-opacity="1" fill-rule="evenodd"/><g clip-path="url(#1850fd684e)"><path fill="#fddbca" d="M 17.425781 25.570312 C 17.8125 22.75 17.75 21.105469 18.410156 19.703125 C 19.070312 18.300781 20.453125 17.140625 21.472656 16.3125 C 22.492188 15.480469 23.152344 14.976562 23.679688 14.097656 C 24.207031 13.214844 24.601562 11.957031 25.007812 11.082031 C 25.414062 10.203125 25.835938 9.699219 26.257812 9.558594 C 26.683594 9.417969 27.113281 9.636719 27.230469 10.214844 C 27.347656 10.796875 27.152344 11.742188 26.90625 12.484375 C 26.65625 13.230469 26.359375 13.773438 26.324219 13.898438 C 26.289062 14.027344 26.515625 13.734375 26.898438 13.152344 C 27.277344 12.570312 27.8125 11.699219 28.171875 10.792969 C 28.53125 9.886719 28.71875 8.945312 28.839844 7.9375 C 28.960938 6.925781 29.011719 5.851562 29.371094 5.199219 C 29.726562 4.550781 30.378906 4.324219 30.5625 5.363281 C 30.742188 6.402344 30.449219 8.703125 30.117188 10.683594 C 29.78125 12.660156 29.40625 14.320312 29.027344 15.460938 C 28.652344 16.597656 28.277344 17.21875 27.617188 17.925781 C 26.953125 18.632812 26 19.425781 25.1875 20.027344 C 24.371094 20.625 23.695312 21.03125 23.136719 21.824219 C 22.574219 22.613281 22.128906 23.789062 21.789062 25.550781 C 21.609375 26.472656 21.460938 27.5625 21.359375 28.585938 L 16.835938 29.03125 C 16.992188 28.144531 17.316406 26.34375 17.425781 25.570312 Z M 17.425781 25.570312 " fill-opacity="1" fill-rule="evenodd"/></g><path fill="#fff4e9" d="M 27.042969 10.347656 C 27.019531 10.007812 26.808594 9.804688 26.652344 9.703125 C 26.492188 9.605469 26.386719 9.617188 26.246094 9.683594 C 26.101562 9.746094 25.921875 9.867188 25.753906 10.109375 C 25.582031 10.351562 25.421875 10.714844 25.359375 10.921875 C 25.292969 11.125 25.324219 11.175781 25.542969 11.289062 C 25.761719 11.402344 26.171875 11.582031 26.402344 11.644531 C 26.636719 11.710938 26.695312 11.664062 26.800781 11.410156 C 26.910156 11.152344 27.070312 10.683594 27.042969 10.347656 Z M 27.042969 10.347656 " fill-opacity="1" fill-rule="evenodd"/><path fill="#f5bfa9" d="M 25.90625 12.761719 C 25.691406 12.671875 25.285156 12.5 25.078125 12.421875 C 24.867188 12.34375 24.855469 12.355469 24.992188 12.429688 C 25.132812 12.503906 25.417969 12.640625 25.640625 12.722656 C 25.859375 12.804688 26.011719 12.839844 26.078125 12.847656 C 26.144531 12.859375 26.121094 12.851562 25.90625 12.761719 Z M 25.90625 12.761719 " fill-opacity="1" fill-rule="evenodd"/><path fill="#f5bfa9" d="M 27.394531 12.355469 C 27.082031 13.007812 26.636719 13.867188 26.3125 14.398438 C 25.933594 15.027344 25.730469 15.191406 25.640625 15.234375 C 25.546875 15.277344 25.566406 15.195312 25.695312 14.96875 C 25.824219 14.746094 26.066406 14.375 26.386719 13.742188 L 26.390625 13.734375 C 26.355469 13.8125 26.332031 13.871094 26.324219 13.898438 C 26.289062 14.027344 26.515625 13.734375 26.898438 13.152344 C 27.046875 12.925781 27.21875 12.65625 27.394531 12.355469 Z M 27.394531 12.355469 " fill-opacity="1" fill-rule="evenodd"/><path fill="#f5bfa9" d="M 25.664062 13.277344 C 25.449219 13.1875 25.042969 13.015625 24.832031 12.9375 C 24.625 12.855469 24.613281 12.867188 24.75 12.941406 C 24.886719 13.015625 25.175781 13.152344 25.394531 13.238281 C 25.613281 13.320312 25.769531 13.351562 25.835938 13.363281 C 25.898438 13.375 25.878906 13.367188 25.664062 13.277344 Z M 25.664062 13.277344 " fill-opacity="1" fill-rule="evenodd"/><path fill="#ffffff" d="M 14.152344 6.765625 L 16.851562 6.765625 L 16.851562 16.109375 L 14.152344 16.109375 Z M 14.152344 6.765625 " fill-opacity="1" fill-rule="evenodd"/><path fill="#ffffff" d="M 10.839844 10.085938 L 20.160156 10.085938 L 20.160156 12.789062 L 10.839844 12.789062 Z M 10.839844 10.085938 " fill-opacity="1" fill-rule="evenodd"/><g fill="#ffffff" fill-opacity="1"><g transform="translate(14.460181, 14.879034)"><g><path d="M 0.796875 0 L 0.765625 -0.140625 C 0.710938 -0.078125 0.660156 -0.0351562 0.609375 -0.015625 C 0.554688 0.00390625 0.492188 0.015625 0.421875 0.015625 C 0.316406 0.015625 0.234375 -0.0078125 0.171875 -0.0625 C 0.117188 -0.113281 0.09375 -0.1875 0.09375 -0.28125 C 0.09375 -0.488281 0.257812 -0.597656 0.59375 -0.609375 L 0.765625 -0.625 L 0.765625 -0.6875 C 0.765625 -0.769531 0.742188 -0.828125 0.703125 -0.859375 C 0.671875 -0.898438 0.617188 -0.921875 0.546875 -0.921875 C 0.460938 -0.921875 0.363281 -0.894531 0.25 -0.84375 L 0.203125 -0.96875 C 0.253906 -0.988281 0.3125 -1.003906 0.375 -1.015625 C 0.4375 -1.035156 0.5 -1.046875 0.5625 -1.046875 C 0.675781 -1.046875 0.765625 -1.019531 0.828125 -0.96875 C 0.890625 -0.914062 0.921875 -0.828125 0.921875 -0.703125 L 0.921875 0 Z M 0.453125 -0.109375 C 0.546875 -0.109375 0.617188 -0.132812 0.671875 -0.1875 C 0.734375 -0.238281 0.765625 -0.316406 0.765625 -0.421875 L 0.765625 -0.515625 L 0.609375 -0.5 C 0.484375 -0.5 0.390625 -0.476562 0.328125 -0.4375 C 0.273438 -0.40625 0.25 -0.351562 0.25 -0.28125 C 0.25 -0.226562 0.265625 -0.1875 0.296875 -0.15625 C 0.335938 -0.125 0.390625 -0.109375 0.453125 -0.109375 Z M 0.453125 -0.109375 "/></g></g></g></svg>