<svg xmlns="http://www.w3.org/2000/svg" xmlns:xlink="http://www.w3.org/1999/xlink" width="40" zoomAndPan="magnify" viewBox="0 0 30 30.000001" height="40" preserveAspectRatio="xMidYMid meet" version="1.0"><defs><g/><clipPath id="9de3c4a1be"><path d="M 2 0 L 29.515625 0 L 29.515625 29 L 2 29 Z M 2 0 " clip-rule="nonzero"/></clipPath><clipPath id="7ae5319e8a"><path d="M 26 5 L 29.515625 5 L 29.515625 8 L 26 8 Z M 26 5 " clip-rule="nonzero"/></clipPath></defs><g clip-path="url(#9de3c4a1be)"><path fill="#fab918" d="M 29.445312 20.585938 C 29.199219 20.285156 28.792969 20.160156 28.421875 20.28125 C 26.28125 20.976562 23.988281 21.074219 21.785156 20.5625 C 15.097656 19.019531 10.917969 12.339844 12.464844 5.671875 C 12.75 4.4375 13.21875 3.261719 13.855469 2.179688 C 14.054688 1.84375 14.023438 1.417969 13.777344 1.113281 C 13.535156 0.808594 13.125 0.6875 12.753906 0.808594 C 10.441406 1.558594 8.347656 2.886719 6.6875 4.65625 C 4.976562 6.484375 3.773438 8.742188 3.207031 11.1875 C 1.425781 18.867188 6.238281 26.558594 13.9375 28.335938 C 16.96875 29.035156 20.074219 28.746094 22.917969 27.503906 C 25.667969 26.300781 28.011719 24.222656 29.523438 21.652344 C 29.722656 21.316406 29.691406 20.890625 29.445312 20.585938 " fill-opacity="1" fill-rule="nonzero"/></g><path fill="#fab918" d="M 25.882812 9.121094 C 25.785156 8.789062 25.492188 8.550781 25.140625 8.523438 L 22.960938 8.378906 L 22.179688 6.398438 C 22.054688 6.082031 21.75 5.875 21.410156 5.875 C 21.066406 5.875 20.761719 6.082031 20.636719 6.398438 L 19.855469 8.378906 L 17.675781 8.523438 C 17.328125 8.550781 17.03125 8.789062 16.933594 9.121094 C 16.839844 9.457031 16.960938 9.816406 17.246094 10.019531 L 18.980469 11.277344 L 18.34375 13.441406 C 18.246094 13.78125 18.371094 14.148438 18.664062 14.351562 C 18.953125 14.554688 19.339844 14.554688 19.628906 14.34375 L 21.410156 13.054688 L 23.191406 14.34375 C 23.335938 14.449219 23.507812 14.503906 23.679688 14.503906 C 23.84375 14.503906 24.011719 14.453125 24.15625 14.351562 C 24.445312 14.148438 24.570312 13.78125 24.472656 13.441406 L 23.835938 11.277344 L 25.574219 10.019531 C 25.855469 9.816406 25.980469 9.457031 25.882812 9.121094 " fill-opacity="1" fill-rule="nonzero"/><path fill="#fab918" d="M 20.769531 1.78125 C 20.714844 1.597656 20.554688 1.46875 20.363281 1.453125 L 19.164062 1.375 L 18.734375 0.289062 C 18.667969 0.113281 18.5 0 18.3125 0 C 18.125 0 17.957031 0.113281 17.886719 0.289062 L 17.457031 1.375 L 16.261719 1.453125 C 16.070312 1.46875 15.90625 1.597656 15.855469 1.78125 C 15.800781 1.964844 15.871094 2.164062 16.023438 2.273438 L 16.980469 2.964844 L 16.628906 4.15625 C 16.574219 4.339844 16.644531 4.542969 16.804688 4.652344 C 16.964844 4.765625 17.175781 4.765625 17.332031 4.652344 L 18.3125 3.941406 L 19.289062 4.652344 C 19.371094 4.707031 19.464844 4.738281 19.558594 4.738281 C 19.648438 4.738281 19.742188 4.710938 19.820312 4.652344 C 19.980469 4.542969 20.050781 4.339844 19.992188 4.15625 L 19.644531 2.964844 L 20.597656 2.273438 C 20.753906 2.164062 20.820312 1.964844 20.769531 1.78125 " fill-opacity="1" fill-rule="nonzero"/><g clip-path="url(#7ae5319e8a)"><path fill="#fab918" d="M 29.640625 6.160156 C 29.609375 6.046875 29.507812 5.964844 29.390625 5.957031 L 28.644531 5.90625 L 28.375 5.230469 C 28.335938 5.121094 28.230469 5.050781 28.113281 5.050781 C 27.996094 5.050781 27.894531 5.121094 27.851562 5.230469 L 27.582031 5.90625 L 26.839844 5.957031 C 26.71875 5.964844 26.617188 6.046875 26.585938 6.160156 C 26.550781 6.273438 26.59375 6.398438 26.691406 6.464844 L 27.285156 6.894531 L 27.066406 7.636719 C 27.03125 7.753906 27.074219 7.878906 27.175781 7.945312 C 27.273438 8.015625 27.40625 8.015625 27.503906 7.945312 L 28.113281 7.503906 L 28.722656 7.945312 C 28.773438 7.980469 28.828125 8 28.890625 8 C 28.945312 8 29.003906 7.980469 29.050781 7.945312 C 29.152344 7.878906 29.195312 7.753906 29.160156 7.636719 L 28.941406 6.894531 L 29.535156 6.464844 C 29.632812 6.398438 29.675781 6.273438 29.640625 6.160156 " fill-opacity="1" fill-rule="nonzero"/></g><g fill="#ffffff" fill-opacity="1"><g transform="translate(14.460181, 14.879034)"><g><path d="M 0.796875 0 L 0.765625 -0.140625 C 0.710938 -0.078125 0.660156 -0.0351562 0.609375 -0.015625 C 0.554688 0.00390625 0.492188 0.015625 0.421875 0.015625 C 0.316406 0.015625 0.234375 -0.0078125 0.171875 -0.0625 C 0.117188 -0.113281 0.09375 -0.1875 0.09375 -0.28125 C 0.09375 -0.488281 0.257812 -0.597656 0.59375 -0.609375 L 0.765625 -0.625 L 0.765625 -0.6875 C 0.765625 -0.769531 0.742188 -0.828125 0.703125 -0.859375 C 0.671875 -0.898438 0.617188 -0.921875 0.546875 -0.921875 C 0.460938 -0.921875 0.363281 -0.894531 0.25 -0.84375 L 0.203125 -0.96875 C 0.253906 -0.988281 0.3125 -1.003906 0.375 -1.015625 C 0.4375 -1.035156 0.5 -1.046875 0.5625 -1.046875 C 0.675781 -1.046875 0.765625 -1.019531 0.828125 -0.96875 C 0.890625 -0.914062 0.921875 -0.828125 0.921875 -0.703125 L 0.921875 0 Z M 0.453125 -0.109375 C 0.546875 -0.109375 0.617188 -0.132812 0.671875 -0.1875 C 0.734375 -0.238281 0.765625 -0.316406 0.765625 -0.421875 L 0.765625 -0.515625 L 0.609375 -0.5 C 0.484375 -0.5 0.390625 -0.476562 0.328125 -0.4375 C 0.273438 -0.40625 0.25 -0.351562 0.25 -0.28125 C 0.25 -0.226562 0.265625 -0.1875 0.296875 -0.15625 C 0.335938 -0.125 0.390625 -0.109375 0.453125 -0.109375 Z M 0.453125 -0.109375 "/></g></g></g></svg>