<svg xmlns="http://www.w3.org/2000/svg" xmlns:xlink="http://www.w3.org/1999/xlink" width="40" zoomAndPan="magnify" viewBox="0 0 30 30.000001" height="40" preserveAspectRatio="xMidYMid meet" version="1.0"><defs><g/><clipPath id="101b2c2258"><path d="M 0.484375 0 L 23 0 L 23 29 L 0.484375 29 Z M 0.484375 0 " clip-rule="nonzero"/></clipPath><clipPath id="de65343ac7"><path d="M 0.484375 0 L 29.515625 0 L 29.515625 29.03125 L 0.484375 29.03125 Z M 0.484375 0 " clip-rule="nonzero"/></clipPath><clipPath id="5930555c5b"><path d="M 28.382812 8.867188 C 27.648438 7.136719 26.605469 5.585938 25.269531 4.25 C 23.933594 2.914062 22.382812 1.871094 20.652344 1.136719 C 18.910156 0.402344 17.070312 0.015625 15.164062 0 C 15.113281 0 15.054688 0 15.003906 0 C 13.046875 0 11.140625 0.382812 9.351562 1.136719 C 7.621094 1.871094 6.074219 2.914062 4.738281 4.25 C 3.402344 5.585938 2.355469 7.136719 1.625 8.867188 C 0.871094 10.660156 0.488281 12.558594 0.488281 14.515625 C 0.488281 16.472656 0.871094 18.378906 1.625 20.164062 C 2.355469 21.894531 3.402344 23.445312 4.738281 24.777344 C 6.074219 26.105469 7.621094 27.152344 9.347656 27.882812 C 10.914062 28.542969 12.570312 28.917969 14.269531 28.996094 C 14.507812 29.019531 14.753906 29.03125 14.996094 29.03125 C 16.953125 29.03125 18.859375 28.648438 20.648438 27.894531 C 22.378906 27.164062 23.925781 26.117188 25.261719 24.78125 C 26.597656 23.445312 27.644531 21.894531 28.375 20.164062 C 29.128906 18.378906 29.511719 16.472656 29.511719 14.515625 C 29.511719 12.558594 29.136719 10.660156 28.382812 8.867188 Z M 15.003906 14.3125 C 10.945312 14.3125 7.640625 17.617188 7.640625 21.675781 C 7.640625 21.734375 7.640625 21.785156 7.640625 21.84375 C 7.640625 21.859375 7.640625 21.871094 7.640625 21.890625 C 7.640625 21.9375 7.644531 21.984375 7.644531 22.03125 C 7.644531 22.042969 7.644531 22.054688 7.644531 22.058594 C 7.644531 22.109375 7.652344 22.167969 7.65625 22.222656 C 7.65625 22.234375 7.65625 22.25 7.664062 22.261719 C 7.667969 22.300781 7.667969 22.347656 7.675781 22.390625 C 7.675781 22.40625 7.675781 22.417969 7.679688 22.4375 C 7.6875 22.488281 7.691406 22.539062 7.699219 22.597656 C 7.699219 22.609375 7.703125 22.621094 7.703125 22.632812 C 7.710938 22.675781 7.714844 22.71875 7.722656 22.761719 C 7.722656 22.777344 7.726562 22.796875 7.726562 22.8125 C 7.734375 22.859375 7.746094 22.90625 7.75 22.953125 C 7.75 22.964844 7.757812 22.96875 7.757812 22.980469 C 7.769531 23.035156 7.773438 23.082031 7.785156 23.132812 C 7.792969 23.148438 7.792969 23.167969 7.796875 23.183594 C 7.804688 23.21875 7.816406 23.261719 7.820312 23.296875 C 7.824219 23.3125 7.824219 23.332031 7.832031 23.34375 C 7.84375 23.386719 7.855469 23.441406 7.867188 23.488281 C 7.871094 23.503906 7.878906 23.523438 7.882812 23.546875 C 7.894531 23.578125 7.902344 23.613281 7.914062 23.644531 C 7.917969 23.660156 7.925781 23.683594 7.929688 23.703125 C 7.941406 23.75 7.960938 23.792969 7.972656 23.839844 C 7.976562 23.859375 7.984375 23.875 7.988281 23.894531 C 8 23.929688 8.011719 23.957031 8.019531 23.992188 C 8.023438 24.015625 8.035156 24.03125 8.039062 24.054688 C 8.050781 24.085938 8.0625 24.121094 8.074219 24.148438 C 8.085938 24.179688 8.09375 24.203125 8.105469 24.230469 C 8.117188 24.265625 8.128906 24.300781 8.144531 24.335938 C 8.15625 24.359375 8.164062 24.382812 8.175781 24.40625 C 8.1875 24.429688 8.199219 24.457031 8.203125 24.480469 C 8.214844 24.503906 8.222656 24.527344 8.234375 24.550781 C 8.25 24.589844 8.265625 24.632812 8.285156 24.671875 C 8.296875 24.695312 8.308594 24.71875 8.320312 24.742188 C 8.332031 24.765625 8.34375 24.789062 8.347656 24.8125 C 8.359375 24.835938 8.371094 24.855469 8.382812 24.886719 C 8.394531 24.910156 8.40625 24.933594 8.417969 24.957031 C 8.4375 24.996094 8.460938 25.039062 8.476562 25.070312 C 8.488281 25.089844 8.5 25.113281 8.511719 25.128906 C 8.523438 25.152344 8.539062 25.183594 8.550781 25.207031 C 8.5625 25.222656 8.574219 25.246094 8.582031 25.265625 C 8.605469 25.308594 8.632812 25.351562 8.65625 25.398438 C 8.667969 25.414062 8.675781 25.433594 8.683594 25.449219 C 8.703125 25.472656 8.714844 25.5 8.730469 25.523438 C 8.742188 25.542969 8.753906 25.558594 8.761719 25.578125 C 8.8125 25.664062 8.871094 25.75 8.929688 25.832031 C 8.941406 25.851562 8.945312 25.863281 8.957031 25.878906 C 8.976562 25.902344 8.992188 25.929688 9.011719 25.953125 C 9.015625 25.964844 9.027344 25.976562 9.039062 25.988281 C 9.074219 26.035156 9.109375 26.082031 9.144531 26.128906 C 9.15625 26.140625 9.160156 26.152344 9.171875 26.164062 C 9.191406 26.1875 9.214844 26.214844 9.230469 26.238281 C 9.242188 26.25 9.25 26.261719 9.261719 26.273438 C 9.300781 26.320312 9.339844 26.371094 9.382812 26.417969 C 9.386719 26.425781 9.394531 26.4375 9.398438 26.441406 C 9.421875 26.464844 9.441406 26.496094 9.464844 26.519531 C 9.476562 26.53125 9.488281 26.542969 9.5 26.554688 C 9.566406 26.632812 9.636719 26.710938 9.714844 26.785156 C 9.726562 26.796875 9.738281 26.808594 9.75 26.820312 C 9.769531 26.84375 9.792969 26.867188 9.816406 26.890625 C 9.828125 26.902344 9.839844 26.90625 9.847656 26.917969 C 9.886719 26.960938 9.933594 27 9.972656 27.039062 C 9.984375 27.050781 9.996094 27.0625 10.007812 27.074219 C 10.03125 27.097656 10.054688 27.117188 10.078125 27.140625 C 10.089844 27.152344 10.101562 27.164062 10.121094 27.175781 C 10.167969 27.214844 10.207031 27.25 10.253906 27.289062 C 10.265625 27.300781 10.277344 27.308594 10.289062 27.320312 C 10.3125 27.335938 10.335938 27.359375 10.359375 27.378906 C 10.375 27.390625 10.386719 27.402344 10.402344 27.414062 C 10.425781 27.429688 10.449219 27.445312 10.472656 27.46875 C 10.492188 27.480469 10.503906 27.492188 10.519531 27.503906 C 10.5625 27.535156 10.601562 27.570312 10.640625 27.597656 C 10.660156 27.609375 10.675781 27.621094 10.695312 27.640625 C 10.71875 27.65625 10.742188 27.671875 10.765625 27.691406 C 10.78125 27.703125 10.804688 27.71875 10.820312 27.730469 C 10.855469 27.753906 10.898438 27.785156 10.933594 27.808594 C 10.957031 27.820312 10.972656 27.835938 10.996094 27.847656 C 11.019531 27.863281 11.042969 27.875 11.066406 27.894531 C 11.089844 27.90625 11.105469 27.921875 11.128906 27.933594 C 11.152344 27.945312 11.175781 27.964844 11.199219 27.976562 C 11.234375 28 11.273438 28.023438 11.308594 28.039062 C 11.332031 28.050781 11.351562 28.0625 11.375 28.074219 C 11.398438 28.085938 11.421875 28.101562 11.449219 28.113281 C 11.472656 28.125 11.488281 28.136719 11.511719 28.148438 C 11.554688 28.171875 11.59375 28.191406 11.636719 28.214844 C 5.480469 26.710938 0.894531 21.140625 0.894531 14.523438 C 0.894531 6.742188 7.222656 0.414062 15.003906 0.414062 C 18.835938 0.414062 21.953125 3.53125 21.953125 7.363281 C 21.953125 11.195312 18.835938 14.3125 15.003906 14.3125 Z M 16.640625 7.363281 C 16.640625 8.261719 15.910156 9 15.003906 9 C 14.097656 9 13.367188 8.269531 13.367188 7.363281 C 13.367188 6.457031 14.101562 5.726562 15.003906 5.726562 C 15.902344 5.726562 16.640625 6.460938 16.640625 7.363281 Z M 16.640625 7.363281 " clip-rule="nonzero"/></clipPath><linearGradient x1="504.158359" gradientTransform="matrix(0.0580645, 0, 0, 0.0580645, 0.486774, -0.0232219)" y1="4.805892" x2="-4.158295" gradientUnits="userSpaceOnUse" y2="496.09756" id="f183689bb4"><stop stop-opacity="1" stop-color="rgb(99.21875%, 89.019775%, 57.649231%)" offset="0"/><stop stop-opacity="1" stop-color="rgb(99.102783%, 88.851929%, 57.521057%)" offset="0.125"/><stop stop-opacity="1" stop-color="rgb(98.394775%, 87.828064%, 56.739807%)" offset="0.128906"/><stop stop-opacity="1" stop-color="rgb(97.802734%, 86.97052%, 56.085205%)" offset="0.132813"/><stop stop-opacity="1" stop-color="rgb(97.209167%, 86.11145%, 55.429077%)" offset="0.136719"/><stop stop-opacity="1" stop-color="rgb(96.617126%, 85.253906%, 54.774475%)" offset="0.140625"/><stop stop-opacity="1" stop-color="rgb(96.02356%, 84.396362%, 54.118347%)" offset="0.144531"/><stop stop-opacity="1" stop-color="rgb(95.431519%, 83.538818%, 53.463745%)" offset="0.148438"/><stop stop-opacity="1" stop-color="rgb(94.837952%, 82.679749%, 52.809143%)" offset="0.152344"/><stop stop-opacity="1" stop-color="rgb(94.244385%, 81.822205%, 52.154541%)" offset="0.15625"/><stop stop-opacity="1" stop-color="rgb(93.650818%, 80.964661%, 51.498413%)" offset="0.160156"/><stop stop-opacity="1" stop-color="rgb(93.058777%, 80.107117%, 50.843811%)" offset="0.164063"/><stop stop-opacity="1" stop-color="rgb(92.46521%, 79.249573%, 50.189209%)" offset="0.167969"/><stop stop-opacity="1" stop-color="rgb(91.873169%, 78.392029%, 49.534607%)" offset="0.171875"/><stop stop-opacity="1" stop-color="rgb(91.279602%, 77.532959%, 48.878479%)" offset="0.175781"/><stop stop-opacity="1" stop-color="rgb(90.687561%, 76.675415%, 48.223877%)" offset="0.179688"/><stop stop-opacity="1" stop-color="rgb(90.093994%, 75.817871%, 47.569275%)" offset="0.183594"/><stop stop-opacity="1" stop-color="rgb(89.500427%, 74.960327%, 46.914673%)" offset="0.1875"/><stop stop-opacity="1" stop-color="rgb(88.90686%, 74.102783%, 46.258545%)" offset="0.191406"/><stop stop-opacity="1" stop-color="rgb(88.314819%, 73.245239%, 45.603943%)" offset="0.195313"/><stop stop-opacity="1" stop-color="rgb(87.721252%, 72.386169%, 44.949341%)" offset="0.199219"/><stop stop-opacity="1" stop-color="rgb(87.129211%, 71.528625%, 44.294739%)" offset="0.203125"/><stop stop-opacity="1" stop-color="rgb(86.535645%, 70.671082%, 43.638611%)" offset="0.207031"/><stop stop-opacity="1" stop-color="rgb(85.943604%, 69.813538%, 42.984009%)" offset="0.210938"/><stop stop-opacity="1" stop-color="rgb(85.350037%, 68.954468%, 42.329407%)" offset="0.214844"/><stop stop-opacity="1" stop-color="rgb(84.757996%, 68.096924%, 41.674805%)" offset="0.21875"/><stop stop-opacity="1" stop-color="rgb(84.20105%, 67.308044%, 41.072083%)" offset="0.222656"/><stop stop-opacity="1" stop-color="rgb(83.64563%, 66.519165%, 40.470886%)" offset="0.226562"/><stop stop-opacity="1" stop-color="rgb(83.111572%, 65.771484%, 39.900208%)" offset="0.230469"/><stop stop-opacity="1" stop-color="rgb(82.577515%, 65.023804%, 39.331055%)" offset="0.234375"/><stop stop-opacity="1" stop-color="rgb(82.043457%, 64.276123%, 38.760376%)" offset="0.238281"/><stop stop-opacity="1" stop-color="rgb(81.509399%, 63.528442%, 38.191223%)" offset="0.242188"/><stop stop-opacity="1" stop-color="rgb(80.975342%, 62.780762%, 37.620544%)" offset="0.246094"/><stop stop-opacity="1" stop-color="rgb(80.441284%, 62.033081%, 37.051392%)" offset="0.25"/><stop stop-opacity="1" stop-color="rgb(79.907227%, 61.283875%, 36.480713%)" offset="0.253906"/><stop stop-opacity="1" stop-color="rgb(79.373169%, 60.536194%, 35.91156%)" offset="0.257813"/><stop stop-opacity="1" stop-color="rgb(78.839111%, 59.788513%, 35.342407%)" offset="0.261719"/><stop stop-opacity="1" stop-color="rgb(78.30658%, 59.040833%, 34.773254%)" offset="0.265625"/><stop stop-opacity="1" stop-color="rgb(77.772522%, 58.293152%, 34.202576%)" offset="0.269531"/><stop stop-opacity="1" stop-color="rgb(77.238464%, 57.545471%, 33.633423%)" offset="0.273438"/><stop stop-opacity="1" stop-color="rgb(76.704407%, 56.797791%, 33.062744%)" offset="0.277344"/><stop stop-opacity="1" stop-color="rgb(76.170349%, 56.05011%, 32.493591%)" offset="0.28125"/><stop stop-opacity="1" stop-color="rgb(75.636292%, 55.302429%, 31.922913%)" offset="0.285156"/><stop stop-opacity="1" stop-color="rgb(75.102234%, 54.554749%, 31.35376%)" offset="0.289063"/><stop stop-opacity="1" stop-color="rgb(74.568176%, 53.807068%, 30.783081%)" offset="0.292969"/><stop stop-opacity="1" stop-color="rgb(74.034119%, 53.059387%, 30.213928%)" offset="0.296875"/><stop stop-opacity="1" stop-color="rgb(73.500061%, 52.311707%, 29.64325%)" offset="0.300781"/><stop stop-opacity="1" stop-color="rgb(72.966003%, 51.564026%, 29.074097%)" offset="0.304688"/><stop stop-opacity="1" stop-color="rgb(72.525024%, 50.933838%, 28.598022%)" offset="0.308594"/><stop stop-opacity="1" stop-color="rgb(72.085571%, 50.30365%, 28.121948%)" offset="0.3125"/><stop stop-opacity="1" stop-color="rgb(71.704102%, 49.74823%, 27.705383%)" offset="0.316406"/><stop stop-opacity="1" stop-color="rgb(71.322632%, 49.194336%, 27.288818%)" offset="0.320313"/><stop stop-opacity="1" stop-color="rgb(70.941162%, 48.638916%, 26.872253%)" offset="0.324219"/><stop stop-opacity="1" stop-color="rgb(70.559692%, 48.085022%, 26.455688%)" offset="0.328125"/><stop stop-opacity="1" stop-color="rgb(70.178223%, 47.529602%, 26.039124%)" offset="0.332031"/><stop stop-opacity="1" stop-color="rgb(69.796753%, 46.975708%, 25.622559%)" offset="0.335938"/><stop stop-opacity="1" stop-color="rgb(69.415283%, 46.420288%, 25.205994%)" offset="0.339844"/><stop stop-opacity="1" stop-color="rgb(69.035339%, 45.866394%, 24.789429%)" offset="0.34375"/><stop stop-opacity="1" stop-color="rgb(68.65387%, 45.310974%, 24.372864%)" offset="0.347656"/><stop stop-opacity="1" stop-color="rgb(68.2724%, 44.75708%, 23.956299%)" offset="0.351563"/><stop stop-opacity="1" stop-color="rgb(68.605042%, 45.237732%, 24.325562%)" offset="0.355469"/><stop stop-opacity="1" stop-color="rgb(68.937683%, 45.71991%, 24.69635%)" offset="0.359375"/><stop stop-opacity="1" stop-color="rgb(69.302368%, 46.247864%, 25.102234%)" offset="0.363281"/><stop stop-opacity="1" stop-color="rgb(69.668579%, 46.775818%, 25.508118%)" offset="0.367188"/><stop stop-opacity="1" stop-color="rgb(70.033264%, 47.303772%, 25.914001%)" offset="0.371094"/><stop stop-opacity="1" stop-color="rgb(70.399475%, 47.831726%, 26.321411%)" offset="0.375"/><stop stop-opacity="1" stop-color="rgb(70.76416%, 48.35968%, 26.727295%)" offset="0.378906"/><stop stop-opacity="1" stop-color="rgb(71.130371%, 48.887634%, 27.134705%)" offset="0.382813"/><stop stop-opacity="1" stop-color="rgb(71.495056%, 49.415588%, 27.540588%)" offset="0.386719"/><stop stop-opacity="1" stop-color="rgb(71.861267%, 49.943542%, 27.946472%)" offset="0.390625"/><stop stop-opacity="1" stop-color="rgb(72.225952%, 50.471497%, 28.352356%)" offset="0.394531"/><stop stop-opacity="1" stop-color="rgb(72.590637%, 50.999451%, 28.759766%)" offset="0.398438"/><stop stop-opacity="1" stop-color="rgb(72.955322%, 51.527405%, 29.165649%)" offset="0.402344"/><stop stop-opacity="1" stop-color="rgb(73.321533%, 52.055359%, 29.571533%)" offset="0.40625"/><stop stop-opacity="1" stop-color="rgb(73.686218%, 52.583313%, 29.977417%)" offset="0.410156"/><stop stop-opacity="1" stop-color="rgb(74.052429%, 53.112793%, 30.384827%)" offset="0.414063"/><stop stop-opacity="1" stop-color="rgb(74.417114%, 53.640747%, 30.79071%)" offset="0.417969"/><stop stop-opacity="1" stop-color="rgb(74.783325%, 54.168701%, 31.196594%)" offset="0.421875"/><stop stop-opacity="1" stop-color="rgb(75.175476%, 54.73175%, 31.628418%)" offset="0.425781"/><stop stop-opacity="1" stop-color="rgb(75.567627%, 55.296326%, 32.061768%)" offset="0.429688"/><stop stop-opacity="1" stop-color="rgb(76.019287%, 55.941772%, 32.551575%)" offset="0.433594"/><stop stop-opacity="1" stop-color="rgb(76.472473%, 56.587219%, 33.042908%)" offset="0.4375"/><stop stop-opacity="1" stop-color="rgb(76.925659%, 57.23114%, 33.534241%)" offset="0.441406"/><stop stop-opacity="1" stop-color="rgb(77.378845%, 57.876587%, 34.025574%)" offset="0.445312"/><stop stop-opacity="1" stop-color="rgb(77.830505%, 58.522034%, 34.515381%)" offset="0.449219"/><stop stop-opacity="1" stop-color="rgb(78.283691%, 59.16748%, 35.006714%)" offset="0.453125"/><stop stop-opacity="1" stop-color="rgb(78.735352%, 59.811401%, 35.498047%)" offset="0.457031"/><stop stop-opacity="1" stop-color="rgb(79.188538%, 60.456848%, 35.98938%)" offset="0.460938"/><stop stop-opacity="1" stop-color="rgb(79.641724%, 61.102295%, 36.479187%)" offset="0.464844"/><stop stop-opacity="1" stop-color="rgb(80.09491%, 61.747742%, 36.97052%)" offset="0.46875"/><stop stop-opacity="1" stop-color="rgb(80.54657%, 62.391663%, 37.461853%)" offset="0.472656"/><stop stop-opacity="1" stop-color="rgb(80.999756%, 63.037109%, 37.953186%)" offset="0.476562"/><stop stop-opacity="1" stop-color="rgb(81.451416%, 63.682556%, 38.442993%)" offset="0.480469"/><stop stop-opacity="1" stop-color="rgb(81.904602%, 64.328003%, 38.934326%)" offset="0.484375"/><stop stop-opacity="1" stop-color="rgb(82.356262%, 64.971924%, 39.425659%)" offset="0.488281"/><stop stop-opacity="1" stop-color="rgb(82.809448%, 65.617371%, 39.916992%)" offset="0.492188"/><stop stop-opacity="1" stop-color="rgb(83.262634%, 66.262817%, 40.406799%)" offset="0.496094"/><stop stop-opacity="1" stop-color="rgb(83.71582%, 66.908264%, 40.898132%)" offset="0.5"/><stop stop-opacity="1" stop-color="rgb(84.16748%, 67.552185%, 41.389465%)" offset="0.503906"/><stop stop-opacity="1" stop-color="rgb(84.620667%, 68.197632%, 41.880798%)" offset="0.507813"/><stop stop-opacity="1" stop-color="rgb(85.072327%, 68.843079%, 42.370605%)" offset="0.511719"/><stop stop-opacity="1" stop-color="rgb(85.525513%, 69.488525%, 42.861938%)" offset="0.515625"/><stop stop-opacity="1" stop-color="rgb(85.978699%, 70.132446%, 43.353271%)" offset="0.519531"/><stop stop-opacity="1" stop-color="rgb(86.431885%, 70.777893%, 43.844604%)" offset="0.523438"/><stop stop-opacity="1" stop-color="rgb(86.883545%, 71.42334%, 44.334412%)" offset="0.527344"/><stop stop-opacity="1" stop-color="rgb(87.336731%, 72.068787%, 44.825745%)" offset="0.53125"/><stop stop-opacity="1" stop-color="rgb(87.788391%, 72.712708%, 45.315552%)" offset="0.535156"/><stop stop-opacity="1" stop-color="rgb(88.241577%, 73.358154%, 45.806885%)" offset="0.539063"/><stop stop-opacity="1" stop-color="rgb(88.693237%, 74.003601%, 46.298218%)" offset="0.542969"/><stop stop-opacity="1" stop-color="rgb(89.146423%, 74.649048%, 46.789551%)" offset="0.546875"/><stop stop-opacity="1" stop-color="rgb(89.599609%, 75.294495%, 47.279358%)" offset="0.550781"/><stop stop-opacity="1" stop-color="rgb(90.052795%, 75.939941%, 47.770691%)" offset="0.554688"/><stop stop-opacity="1" stop-color="rgb(90.504456%, 76.583862%, 48.262024%)" offset="0.558594"/><stop stop-opacity="1" stop-color="rgb(90.957642%, 77.229309%, 48.753357%)" offset="0.5625"/><stop stop-opacity="1" stop-color="rgb(91.409302%, 77.874756%, 49.243164%)" offset="0.566406"/><stop stop-opacity="1" stop-color="rgb(91.862488%, 78.520203%, 49.734497%)" offset="0.570313"/><stop stop-opacity="1" stop-color="rgb(92.315674%, 79.164124%, 50.22583%)" offset="0.574219"/><stop stop-opacity="1" stop-color="rgb(92.76886%, 79.80957%, 50.717163%)" offset="0.578125"/><stop stop-opacity="1" stop-color="rgb(93.22052%, 80.455017%, 51.20697%)" offset="0.582031"/><stop stop-opacity="1" stop-color="rgb(93.673706%, 81.100464%, 51.698303%)" offset="0.585938"/><stop stop-opacity="1" stop-color="rgb(94.165039%, 81.802368%, 52.226257%)" offset="0.589844"/><stop stop-opacity="1" stop-color="rgb(94.656372%, 82.504272%, 52.754211%)" offset="0.59375"/><stop stop-opacity="1" stop-color="rgb(95.150757%, 83.209229%, 53.283691%)" offset="0.597656"/><stop stop-opacity="1" stop-color="rgb(95.645142%, 83.91571%, 53.814697%)" offset="0.601562"/><stop stop-opacity="1" stop-color="rgb(96.139526%, 84.620667%, 54.344177%)" offset="0.605469"/><stop stop-opacity="1" stop-color="rgb(96.633911%, 85.325623%, 54.875183%)" offset="0.609375"/><stop stop-opacity="1" stop-color="rgb(97.12677%, 86.030579%, 55.404663%)" offset="0.613281"/><stop stop-opacity="1" stop-color="rgb(97.621155%, 86.737061%, 55.935669%)" offset="0.617188"/><stop stop-opacity="1" stop-color="rgb(98.11554%, 87.442017%, 56.465149%)" offset="0.621094"/><stop stop-opacity="1" stop-color="rgb(98.609924%, 88.148499%, 56.994629%)" offset="0.625"/><stop stop-opacity="1" stop-color="rgb(98.731995%, 88.323975%, 57.122803%)" offset="0.628906"/><stop stop-opacity="1" stop-color="rgb(98.855591%, 88.499451%, 57.252502%)" offset="0.632812"/><stop stop-opacity="1" stop-color="rgb(98.381042%, 87.820435%, 56.735229%)" offset="0.636719"/><stop stop-opacity="1" stop-color="rgb(97.906494%, 87.141418%, 56.219482%)" offset="0.640625"/><stop stop-opacity="1" stop-color="rgb(97.431946%, 86.462402%, 55.702209%)" offset="0.644531"/><stop stop-opacity="1" stop-color="rgb(96.957397%, 85.784912%, 55.186462%)" offset="0.648438"/><stop stop-opacity="1" stop-color="rgb(96.482849%, 85.105896%, 54.669189%)" offset="0.652344"/><stop stop-opacity="1" stop-color="rgb(96.008301%, 84.42688%, 54.153442%)" offset="0.65625"/><stop stop-opacity="1" stop-color="rgb(95.533752%, 83.747864%, 53.636169%)" offset="0.660156"/><stop stop-opacity="1" stop-color="rgb(95.06073%, 83.070374%, 53.120422%)" offset="0.664062"/><stop stop-opacity="1" stop-color="rgb(94.586182%, 82.391357%, 52.603149%)" offset="0.667969"/><stop stop-opacity="1" stop-color="rgb(94.111633%, 81.713867%, 52.087402%)" offset="0.671875"/><stop stop-opacity="1" stop-color="rgb(93.637085%, 81.034851%, 51.570129%)" offset="0.675781"/><stop stop-opacity="1" stop-color="rgb(93.162537%, 80.355835%, 51.054382%)" offset="0.679688"/><stop stop-opacity="1" stop-color="rgb(92.687988%, 79.676819%, 50.537109%)" offset="0.683594"/><stop stop-opacity="1" stop-color="rgb(92.21344%, 78.999329%, 50.021362%)" offset="0.6875"/><stop stop-opacity="1" stop-color="rgb(91.738892%, 78.320312%, 49.504089%)" offset="0.691406"/><stop stop-opacity="1" stop-color="rgb(91.264343%, 77.641296%, 48.988342%)" offset="0.695312"/><stop stop-opacity="1" stop-color="rgb(90.789795%, 76.96228%, 48.471069%)" offset="0.699219"/><stop stop-opacity="1" stop-color="rgb(90.315247%, 76.28479%, 47.955322%)" offset="0.703125"/><stop stop-opacity="1" stop-color="rgb(89.840698%, 75.605774%, 47.438049%)" offset="0.707031"/><stop stop-opacity="1" stop-color="rgb(89.36615%, 74.926758%, 46.922302%)" offset="0.710938"/><stop stop-opacity="1" stop-color="rgb(88.891602%, 74.247742%, 46.405029%)" offset="0.714844"/><stop stop-opacity="1" stop-color="rgb(88.418579%, 73.570251%, 45.889282%)" offset="0.71875"/><stop stop-opacity="1" stop-color="rgb(87.944031%, 72.891235%, 45.372009%)" offset="0.722656"/><stop stop-opacity="1" stop-color="rgb(87.469482%, 72.213745%, 44.856262%)" offset="0.726562"/><stop stop-opacity="1" stop-color="rgb(86.994934%, 71.534729%, 44.338989%)" offset="0.730469"/><stop stop-opacity="1" stop-color="rgb(86.520386%, 70.855713%, 43.823242%)" offset="0.734375"/><stop stop-opacity="1" stop-color="rgb(86.045837%, 70.176697%, 43.305969%)" offset="0.738281"/><stop stop-opacity="1" stop-color="rgb(85.571289%, 69.499207%, 42.790222%)" offset="0.742188"/><stop stop-opacity="1" stop-color="rgb(85.096741%, 68.82019%, 42.272949%)" offset="0.746094"/><stop stop-opacity="1" stop-color="rgb(84.622192%, 68.141174%, 41.757202%)" offset="0.75"/><stop stop-opacity="1" stop-color="rgb(84.147644%, 67.462158%, 41.239929%)" offset="0.753906"/><stop stop-opacity="1" stop-color="rgb(83.673096%, 66.784668%, 40.724182%)" offset="0.757813"/><stop stop-opacity="1" stop-color="rgb(83.198547%, 66.105652%, 40.206909%)" offset="0.761719"/><stop stop-opacity="1" stop-color="rgb(82.723999%, 65.428162%, 39.691162%)" offset="0.765625"/><stop stop-opacity="1" stop-color="rgb(82.249451%, 64.749146%, 39.173889%)" offset="0.769531"/><stop stop-opacity="1" stop-color="rgb(81.776428%, 64.070129%, 38.658142%)" offset="0.773438"/><stop stop-opacity="1" stop-color="rgb(81.30188%, 63.391113%, 38.140869%)" offset="0.777344"/><stop stop-opacity="1" stop-color="rgb(80.827332%, 62.713623%, 37.623596%)" offset="0.78125"/><stop stop-opacity="1" stop-color="rgb(80.352783%, 62.034607%, 37.106323%)" offset="0.785156"/><stop stop-opacity="1" stop-color="rgb(79.878235%, 61.355591%, 36.590576%)" offset="0.789063"/><stop stop-opacity="1" stop-color="rgb(79.403687%, 60.676575%, 36.073303%)" offset="0.792969"/><stop stop-opacity="1" stop-color="rgb(78.929138%, 59.999084%, 35.557556%)" offset="0.796875"/><stop stop-opacity="1" stop-color="rgb(78.45459%, 59.320068%, 35.040283%)" offset="0.800781"/><stop stop-opacity="1" stop-color="rgb(77.980042%, 58.641052%, 34.524536%)" offset="0.804688"/><stop stop-opacity="1" stop-color="rgb(77.505493%, 57.962036%, 34.007263%)" offset="0.808594"/><stop stop-opacity="1" stop-color="rgb(77.030945%, 57.284546%, 33.491516%)" offset="0.8125"/><stop stop-opacity="1" stop-color="rgb(76.556396%, 56.60553%, 32.974243%)" offset="0.816406"/><stop stop-opacity="1" stop-color="rgb(76.081848%, 55.92804%, 32.458496%)" offset="0.820313"/><stop stop-opacity="1" stop-color="rgb(75.6073%, 55.249023%, 31.941223%)" offset="0.824219"/><stop stop-opacity="1" stop-color="rgb(75.134277%, 54.570007%, 31.425476%)" offset="0.828125"/><stop stop-opacity="1" stop-color="rgb(74.659729%, 53.890991%, 30.908203%)" offset="0.832031"/><stop stop-opacity="1" stop-color="rgb(74.185181%, 53.213501%, 30.392456%)" offset="0.835938"/><stop stop-opacity="1" stop-color="rgb(73.710632%, 52.534485%, 29.875183%)" offset="0.839844"/><stop stop-opacity="1" stop-color="rgb(73.236084%, 51.855469%, 29.359436%)" offset="0.84375"/><stop stop-opacity="1" stop-color="rgb(72.761536%, 51.176453%, 28.842163%)" offset="0.847656"/><stop stop-opacity="1" stop-color="rgb(72.286987%, 50.498962%, 28.326416%)" offset="0.851563"/><stop stop-opacity="1" stop-color="rgb(71.812439%, 49.819946%, 27.809143%)" offset="0.855469"/><stop stop-opacity="1" stop-color="rgb(71.337891%, 49.14093%, 27.293396%)" offset="0.859375"/><stop stop-opacity="1" stop-color="rgb(70.863342%, 48.461914%, 26.776123%)" offset="0.863281"/><stop stop-opacity="1" stop-color="rgb(70.388794%, 47.784424%, 26.260376%)" offset="0.867188"/><stop stop-opacity="1" stop-color="rgb(69.914246%, 47.105408%, 25.743103%)" offset="0.871094"/><stop stop-opacity="1" stop-color="rgb(69.439697%, 46.427917%, 25.227356%)" offset="0.875"/><stop stop-opacity="1" stop-color="rgb(68.965149%, 45.748901%, 24.710083%)" offset="0.878906"/><stop stop-opacity="1" stop-color="rgb(68.492126%, 45.069885%, 24.194336%)" offset="0.882813"/><stop stop-opacity="1" stop-color="rgb(68.365479%, 44.889832%, 24.057007%)" offset="0.890625"/><stop stop-opacity="1" stop-color="rgb(68.238831%, 44.709778%, 23.919678%)" offset="0.90625"/><stop stop-opacity="1" stop-color="rgb(68.238831%, 44.709778%, 23.919678%)" offset="0.9375"/><stop stop-opacity="1" stop-color="rgb(68.238831%, 44.709778%, 23.919678%)" offset="1"/></linearGradient></defs><g clip-path="url(#101b2c2258)"><path fill="#ffffff" d="M 15.003906 0.210938 C 18.957031 0.210938 22.15625 3.414062 22.15625 7.363281 C 22.15625 11.3125 18.957031 14.523438 15.003906 14.523438 C 11.046875 14.523438 7.847656 17.726562 7.847656 21.675781 C 7.847656 25.625 11.046875 28.828125 15.003906 28.828125 C 7.101562 28.828125 0.691406 22.425781 0.691406 14.523438 C 0.691406 6.621094 7.101562 0.210938 15.003906 0.210938 Z M 15.003906 0.210938 " fill-opacity="1" fill-rule="nonzero"/></g><g clip-path="url(#de65343ac7)"><g clip-path="url(#5930555c5b)"><path fill="url(#f183689bb4)" d="M 0.488281 0 L 0.488281 29.03125 L 29.511719 29.03125 L 29.511719 0 Z M 0.488281 0 " fill-rule="nonzero"/></g></g><path fill="#ffffff" d="M 15.003906 20.039062 C 14.101562 20.039062 13.367188 20.769531 13.367188 21.675781 C 13.367188 22.582031 14.097656 23.3125 15.003906 23.3125 C 15.910156 23.3125 16.640625 22.582031 16.640625 21.675781 C 16.640625 20.769531 15.902344 20.039062 15.003906 20.039062 Z M 15.003906 20.039062 " fill-opacity="1" fill-rule="nonzero"/><g fill="#ffffff" fill-opacity="1"><g transform="translate(10.540826, 13.983874)"><g><path d="M 0.796875 0 L 0.765625 -0.140625 C 0.710938 -0.078125 0.660156 -0.0351562 0.609375 -0.015625 C 0.554688 0.00390625 0.492188 0.015625 0.421875 0.015625 C 0.316406 0.015625 0.234375 -0.0078125 0.171875 -0.0625 C 0.117188 -0.113281 0.09375 -0.1875 0.09375 -0.28125 C 0.09375 -0.488281 0.257812 -0.597656 0.59375 -0.609375 L 0.765625 -0.625 L 0.765625 -0.6875 C 0.765625 -0.769531 0.742188 -0.828125 0.703125 -0.859375 C 0.671875 -0.898438 0.617188 -0.921875 0.546875 -0.921875 C 0.460938 -0.921875 0.363281 -0.894531 0.25 -0.84375 L 0.203125 -0.96875 C 0.253906 -0.988281 0.3125 -1.003906 0.375 -1.015625 C 0.4375 -1.035156 0.5 -1.046875 0.5625 -1.046875 C 0.675781 -1.046875 0.765625 -1.019531 0.828125 -0.96875 C 0.890625 -0.914062 0.921875 -0.828125 0.921875 -0.703125 L 0.921875 0 Z M 0.453125 -0.109375 C 0.546875 -0.109375 0.617188 -0.132812 0.671875 -0.1875 C 0.734375 -0.238281 0.765625 -0.316406 0.765625 -0.421875 L 0.765625 -0.515625 L 0.609375 -0.5 C 0.484375 -0.5 0.390625 -0.476562 0.328125 -0.4375 C 0.273438 -0.40625 0.25 -0.351562 0.25 -0.28125 C 0.25 -0.226562 0.265625 -0.1875 0.296875 -0.15625 C 0.335938 -0.125 0.390625 -0.109375 0.453125 -0.109375 Z M 0.453125 -0.109375 "/></g></g></g></svg>