<svg xmlns="http://www.w3.org/2000/svg" xmlns:xlink="http://www.w3.org/1999/xlink" width="40" zoomAndPan="magnify" viewBox="0 0 30 30.000001" height="40" preserveAspectRatio="xMidYMid meet" version="1.0"><defs><g/><clipPath id="70904fa271"><path d="M 21 11 L 29.515625 11 L 29.515625 24 L 21 24 Z M 21 11 " clip-rule="nonzero"/></clipPath><clipPath id="696fba84cb"><path d="M 0.484375 20 L 13 20 L 13 29.03125 L 0.484375 29.03125 Z M 0.484375 20 " clip-rule="nonzero"/></clipPath></defs><path fill="#5f8c55" d="M 12.191406 0 C 8.046875 0 4.699219 1.875 4.699219 4.683594 C 4.699219 7.023438 6.265625 6.714844 6.570312 8.898438 C 7.976562 6.554688 10.316406 8.898438 13.125 5.152344 C 14.714844 3.03125 14.652344 2.75 17.339844 1.875 C 17.339844 1.875 16.40625 0 12.191406 0 Z M 12.191406 0 " fill-opacity="1" fill-rule="nonzero"/><path fill="#aabc6e" d="M 6.425781 12.046875 C 5.523438 9.804688 6.070312 7.121094 7.480469 5.238281 C 8.839844 3.410156 10.945312 2.304688 13.128906 1.875 C 12.078125 2.199219 11.085938 2.679688 10.214844 3.3125 C 7.691406 5.023438 6.300781 8.542969 7.652344 11.367188 C 8.191406 12.214844 6.863281 12.957031 6.425781 12.046875 Z M 6.425781 12.046875 " fill-opacity="1" fill-rule="nonzero"/><g clip-path="url(#70904fa271)"><path fill="#5f8c55" d="M 26.238281 11.238281 C 24.832031 11.238281 24.367188 11.707031 22.960938 11.238281 C 23.898438 14.046875 20.621094 14.046875 22.492188 17.792969 C 23.636719 20.082031 24.367188 22.007812 24.367188 23.882812 C 24.367188 23.882812 29.515625 21.539062 29.515625 16.390625 C 29.515625 14.199219 28.625 11.238281 26.238281 11.238281 Z M 26.238281 11.238281 " fill-opacity="1" fill-rule="nonzero"/></g><path fill="#aabc6e" d="M 19.835938 9.148438 C 24.796875 10.425781 27.777344 15.253906 25.769531 20.136719 C 26.078125 19.039062 26.183594 17.890625 26.039062 16.785156 C 25.6875 13.433594 22.738281 10.992188 19.527344 10.519531 C 18.574219 10.324219 18.886719 8.914062 19.835938 9.148438 Z M 19.835938 9.148438 " fill-opacity="1" fill-rule="nonzero"/><g clip-path="url(#696fba84cb)"><path fill="#5f8c55" d="M 7.039062 22.007812 C 4.699219 21.539062 3.011719 22.074219 0.953125 20.136719 C 0.953125 20.136719 0.484375 21.148438 0.484375 22.476562 C 0.484375 27.160156 4.699219 29.03125 7.507812 29.03125 C 11.253906 29.03125 10.785156 27.628906 12.191406 26.222656 C 9.847656 24.816406 11.984375 22.996094 7.039062 22.007812 Z M 7.039062 22.007812 " fill-opacity="1" fill-rule="nonzero"/></g><path fill="#aabc6e" d="M 15.957031 24.855469 C 12.25 28.261719 6.527344 27.523438 3.292969 23.882812 C 4.125 24.648438 5.101562 25.230469 6.132812 25.644531 C 9.132812 26.953125 12.804688 26.316406 14.980469 23.84375 C 15.65625 23.144531 16.679688 24.199219 15.957031 24.855469 Z M 15.957031 24.855469 " fill-opacity="1" fill-rule="nonzero"/><path fill="#f5bb2d" d="M 19.546875 13.25 L 19.078125 12.78125 C 18.988281 12.691406 18.871094 12.644531 18.746094 12.644531 L 16.03125 12.644531 L 17.332031 5.707031 C 17.375 5.484375 17.253906 5.265625 17.046875 5.183594 C 16.839844 5.101562 16.601562 5.175781 16.480469 5.363281 L 10.394531 14.730469 C 10.273438 14.914062 10.296875 15.160156 10.453125 15.316406 L 10.921875 15.785156 C 11.011719 15.871094 11.128906 15.921875 11.253906 15.921875 L 13.972656 15.921875 L 12.664062 23.332031 C 12.625 23.554688 12.75 23.769531 12.960938 23.851562 C 13.015625 23.871094 13.070312 23.882812 13.125 23.882812 C 13.285156 23.882812 13.4375 23.800781 13.523438 23.660156 L 19.613281 13.824219 C 19.726562 13.640625 19.699219 13.402344 19.546875 13.25 Z M 19.546875 13.25 " fill-opacity="1" fill-rule="nonzero"/><g fill="#ffffff" fill-opacity="1"><g transform="translate(6.331148, 15.774196)"><g><path d="M 0.796875 0 L 0.765625 -0.140625 C 0.710938 -0.078125 0.660156 -0.0351562 0.609375 -0.015625 C 0.554688 0.00390625 0.492188 0.015625 0.421875 0.015625 C 0.316406 0.015625 0.234375 -0.0078125 0.171875 -0.0625 C 0.117188 -0.113281 0.09375 -0.1875 0.09375 -0.28125 C 0.09375 -0.488281 0.257812 -0.597656 0.59375 -0.609375 L 0.765625 -0.625 L 0.765625 -0.6875 C 0.765625 -0.769531 0.742188 -0.828125 0.703125 -0.859375 C 0.671875 -0.898438 0.617188 -0.921875 0.546875 -0.921875 C 0.460938 -0.921875 0.363281 -0.894531 0.25 -0.84375 L 0.203125 -0.96875 C 0.253906 -0.988281 0.3125 -1.003906 0.375 -1.015625 C 0.4375 -1.035156 0.5 -1.046875 0.5625 -1.046875 C 0.675781 -1.046875 0.765625 -1.019531 0.828125 -0.96875 C 0.890625 -0.914062 0.921875 -0.828125 0.921875 -0.703125 L 0.921875 0 Z M 0.453125 -0.109375 C 0.546875 -0.109375 0.617188 -0.132812 0.671875 -0.1875 C 0.734375 -0.238281 0.765625 -0.316406 0.765625 -0.421875 L 0.765625 -0.515625 L 0.609375 -0.5 C 0.484375 -0.5 0.390625 -0.476562 0.328125 -0.4375 C 0.273438 -0.40625 0.25 -0.351562 0.25 -0.28125 C 0.25 -0.226562 0.265625 -0.1875 0.296875 -0.15625 C 0.335938 -0.125 0.390625 -0.109375 0.453125 -0.109375 Z M 0.453125 -0.109375 "/></g></g></g></svg>