<svg xmlns="http://www.w3.org/2000/svg" xmlns:xlink="http://www.w3.org/1999/xlink" width="40" zoomAndPan="magnify" viewBox="0 0 30 30.000001" height="40" preserveAspectRatio="xMidYMid meet" version="1.0"><defs><g/><clipPath id="8005b58a33"><path d="M 19 1 L 27 1 L 27 8 L 19 8 Z M 19 1 " clip-rule="nonzero"/></clipPath><clipPath id="5cd862c2b7"><path d="M 20.128906 -0.660156 L 28.484375 6.316406 L 8.949219 29.71875 L 0.59375 22.742188 Z M 20.128906 -0.660156 " clip-rule="nonzero"/></clipPath><clipPath id="bdf603d37e"><path d="M 20.128906 -0.660156 L 28.484375 6.316406 L 8.949219 29.71875 L 0.59375 22.742188 Z M 20.128906 -0.660156 " clip-rule="nonzero"/></clipPath><clipPath id="989b4e8d76"><path d="M 20.128906 -0.660156 L 28.484375 6.316406 L 8.949219 29.71875 L 0.59375 22.742188 Z M 20.128906 -0.660156 " clip-rule="nonzero"/></clipPath><clipPath id="26a8a86f9d"><path d="M 18 2 L 26 2 L 26 10 L 18 10 Z M 18 2 " clip-rule="nonzero"/></clipPath><clipPath id="3b11470839"><path d="M 20.128906 -0.660156 L 28.484375 6.316406 L 8.949219 29.71875 L 0.59375 22.742188 Z M 20.128906 -0.660156 " clip-rule="nonzero"/></clipPath><clipPath id="e57bbe4473"><path d="M 20.128906 -0.660156 L 28.484375 6.316406 L 8.949219 29.71875 L 0.59375 22.742188 Z M 20.128906 -0.660156 " clip-rule="nonzero"/></clipPath><clipPath id="fcfb1b15f5"><path d="M 20.128906 -0.660156 L 28.484375 6.316406 L 8.949219 29.71875 L 0.59375 22.742188 Z M 20.128906 -0.660156 " clip-rule="nonzero"/></clipPath><clipPath id="c0183e48d8"><path d="M 3 19 L 11 19 L 11 27 L 3 27 Z M 3 19 " clip-rule="nonzero"/></clipPath><clipPath id="4f1e3a9a43"><path d="M 20.128906 -0.660156 L 28.484375 6.316406 L 8.949219 29.71875 L 0.59375 22.742188 Z M 20.128906 -0.660156 " clip-rule="nonzero"/></clipPath><clipPath id="49a50eacc6"><path d="M 20.128906 -0.660156 L 28.484375 6.316406 L 8.949219 29.71875 L 0.59375 22.742188 Z M 20.128906 -0.660156 " clip-rule="nonzero"/></clipPath><clipPath id="95b21fb120"><path d="M 20.128906 -0.660156 L 28.484375 6.316406 L 8.949219 29.71875 L 0.59375 22.742188 Z M 20.128906 -0.660156 " clip-rule="nonzero"/></clipPath><clipPath id="79c5145dac"><path d="M 2 21 L 10 21 L 10 29 L 2 29 Z M 2 21 " clip-rule="nonzero"/></clipPath><clipPath id="fd8123c080"><path d="M 20.128906 -0.660156 L 28.484375 6.316406 L 8.949219 29.71875 L 0.59375 22.742188 Z M 20.128906 -0.660156 " clip-rule="nonzero"/></clipPath><clipPath id="c4ffa245a2"><path d="M 20.128906 -0.660156 L 28.484375 6.316406 L 8.949219 29.71875 L 0.59375 22.742188 Z M 20.128906 -0.660156 " clip-rule="nonzero"/></clipPath><clipPath id="ac23df5298"><path d="M 20.128906 -0.660156 L 28.484375 6.316406 L 8.949219 29.71875 L 0.59375 22.742188 Z M 20.128906 -0.660156 " clip-rule="nonzero"/></clipPath><clipPath id="18d9fe7cbf"><path d="M 13 8 L 20 8 L 20 15 L 13 15 Z M 13 8 " clip-rule="nonzero"/></clipPath><clipPath id="08fc7d9c4a"><path d="M 20.128906 -0.660156 L 28.484375 6.316406 L 8.949219 29.71875 L 0.59375 22.742188 Z M 20.128906 -0.660156 " clip-rule="nonzero"/></clipPath><clipPath id="26a49332b1"><path d="M 20.128906 -0.660156 L 28.484375 6.316406 L 8.949219 29.71875 L 0.59375 22.742188 Z M 20.128906 -0.660156 " clip-rule="nonzero"/></clipPath><clipPath id="068f902d89"><path d="M 20.128906 -0.660156 L 28.484375 6.316406 L 8.949219 29.71875 L 0.59375 22.742188 Z M 20.128906 -0.660156 " clip-rule="nonzero"/></clipPath><clipPath id="3674d51df6"><path d="M 11 10 L 19 10 L 19 17 L 11 17 Z M 11 10 " clip-rule="nonzero"/></clipPath><clipPath id="752a26a63c"><path d="M 20.128906 -0.660156 L 28.484375 6.316406 L 8.949219 29.71875 L 0.59375 22.742188 Z M 20.128906 -0.660156 " clip-rule="nonzero"/></clipPath><clipPath id="8619bd31a9"><path d="M 20.128906 -0.660156 L 28.484375 6.316406 L 8.949219 29.71875 L 0.59375 22.742188 Z M 20.128906 -0.660156 " clip-rule="nonzero"/></clipPath><clipPath id="e5bbe2791e"><path d="M 20.128906 -0.660156 L 28.484375 6.316406 L 8.949219 29.71875 L 0.59375 22.742188 Z M 20.128906 -0.660156 " clip-rule="nonzero"/></clipPath><clipPath id="cd62a5172e"><path d="M 10 12 L 18 12 L 18 19 L 10 19 Z M 10 12 " clip-rule="nonzero"/></clipPath><clipPath id="6286c2143c"><path d="M 20.128906 -0.660156 L 28.484375 6.316406 L 8.949219 29.71875 L 0.59375 22.742188 Z M 20.128906 -0.660156 " clip-rule="nonzero"/></clipPath><clipPath id="d202643f7e"><path d="M 20.128906 -0.660156 L 28.484375 6.316406 L 8.949219 29.71875 L 0.59375 22.742188 Z M 20.128906 -0.660156 " clip-rule="nonzero"/></clipPath><clipPath id="99766034c2"><path d="M 20.128906 -0.660156 L 28.484375 6.316406 L 8.949219 29.71875 L 0.59375 22.742188 Z M 20.128906 -0.660156 " clip-rule="nonzero"/></clipPath><clipPath id="e571a6558e"><path d="M 9 14 L 16 14 L 16 20 L 9 20 Z M 9 14 " clip-rule="nonzero"/></clipPath><clipPath id="8582075700"><path d="M 20.128906 -0.660156 L 28.484375 6.316406 L 8.949219 29.71875 L 0.59375 22.742188 Z M 20.128906 -0.660156 " clip-rule="nonzero"/></clipPath><clipPath id="ff581d979f"><path d="M 20.128906 -0.660156 L 28.484375 6.316406 L 8.949219 29.71875 L 0.59375 22.742188 Z M 20.128906 -0.660156 " clip-rule="nonzero"/></clipPath><clipPath id="fbd814fc51"><path d="M 20.128906 -0.660156 L 28.484375 6.316406 L 8.949219 29.71875 L 0.59375 22.742188 Z M 20.128906 -0.660156 " clip-rule="nonzero"/></clipPath><clipPath id="c7986e1075"><path d="M 8 5 L 29 5 L 29 29.03125 L 8 29.03125 Z M 8 5 " clip-rule="nonzero"/></clipPath><clipPath id="194525ea1c"><path d="M 20.128906 -0.660156 L 28.484375 6.316406 L 8.949219 29.71875 L 0.59375 22.742188 Z M 20.128906 -0.660156 " clip-rule="nonzero"/></clipPath><clipPath id="586b338c53"><path d="M 20.128906 -0.660156 L 28.484375 6.316406 L 8.949219 29.71875 L 0.59375 22.742188 Z M 20.128906 -0.660156 " clip-rule="nonzero"/></clipPath><clipPath id="f2552943a3"><path d="M 20.128906 -0.660156 L 28.484375 6.316406 L 8.949219 29.71875 L 0.59375 22.742188 Z M 20.128906 -0.660156 " clip-rule="nonzero"/></clipPath><clipPath id="57ce2fe4f1"><path d="M 0.484375 0 L 22 0 L 22 24 L 0.484375 24 Z M 0.484375 0 " clip-rule="nonzero"/></clipPath><clipPath id="0a28dcddfc"><path d="M 20.128906 -0.660156 L 28.484375 6.316406 L 8.949219 29.71875 L 0.59375 22.742188 Z M 20.128906 -0.660156 " clip-rule="nonzero"/></clipPath><clipPath id="ba31c05659"><path d="M 20.128906 -0.660156 L 28.484375 6.316406 L 8.949219 29.71875 L 0.59375 22.742188 Z M 20.128906 -0.660156 " clip-rule="nonzero"/></clipPath><clipPath id="9ea7e38dbc"><path d="M 20.128906 -0.660156 L 28.484375 6.316406 L 8.949219 29.71875 L 0.59375 22.742188 Z M 20.128906 -0.660156 " clip-rule="nonzero"/></clipPath></defs><g clip-path="url(#8005b58a33)"><g clip-path="url(#5cd862c2b7)"><g clip-path="url(#bdf603d37e)"><g clip-path="url(#989b4e8d76)"><path fill="#1f3a68" d="M 26.445312 7.449219 L 19.5625 1.707031 L 20.09375 1.074219 L 26.972656 6.816406 L 26.445312 7.449219 " fill-opacity="1" fill-rule="nonzero"/></g></g></g></g><g clip-path="url(#26a8a86f9d)"><g clip-path="url(#3b11470839)"><g clip-path="url(#e57bbe4473)"><g clip-path="url(#fcfb1b15f5)"><path fill="#1f3a68" d="M 25 9.179688 L 18.121094 3.4375 L 18.648438 2.804688 L 25.53125 8.546875 L 25 9.179688 " fill-opacity="1" fill-rule="nonzero"/></g></g></g></g><g clip-path="url(#c0183e48d8)"><g clip-path="url(#4f1e3a9a43)"><g clip-path="url(#49a50eacc6)"><g clip-path="url(#95b21fb120)"><path fill="#1f3a68" d="M 10.332031 26.273438 L 3.449219 20.527344 L 3.980469 19.894531 L 10.859375 25.640625 L 10.332031 26.273438 " fill-opacity="1" fill-rule="nonzero"/></g></g></g></g><g clip-path="url(#79c5145dac)"><g clip-path="url(#fd8123c080)"><g clip-path="url(#c4ffa245a2)"><g clip-path="url(#ac23df5298)"><path fill="#1f3a68" d="M 8.886719 28.003906 L 2.007812 22.257812 L 2.535156 21.625 L 9.417969 27.367188 L 8.886719 28.003906 " fill-opacity="1" fill-rule="nonzero"/></g></g></g></g><g clip-path="url(#18d9fe7cbf)"><g clip-path="url(#08fc7d9c4a)"><g clip-path="url(#26a49332b1)"><g clip-path="url(#068f902d89)"><path fill="#1f3a68" d="M 19.785156 14.273438 C 19.804688 14.035156 19.820312 13.789062 19.863281 13.546875 L 14.246094 8.859375 C 13.960938 8.996094 13.664062 9.097656 13.355469 9.191406 L 19.757812 14.53125 C 19.769531 14.449219 19.777344 14.359375 19.785156 14.273438 " fill-opacity="1" fill-rule="nonzero"/></g></g></g></g><g clip-path="url(#3674d51df6)"><g clip-path="url(#752a26a63c)"><g clip-path="url(#8619bd31a9)"><g clip-path="url(#e5bbe2791e)"><path fill="#1f3a68" d="M 18.359375 16.507812 L 11.476562 10.761719 L 12.003906 10.128906 L 18.886719 15.871094 L 18.359375 16.507812 " fill-opacity="1" fill-rule="nonzero"/></g></g></g></g><g clip-path="url(#cd62a5172e)"><g clip-path="url(#6286c2143c)"><g clip-path="url(#d202643f7e)"><g clip-path="url(#99766034c2)"><path fill="#1f3a68" d="M 17.035156 18.542969 L 10.152344 12.800781 L 10.683594 12.167969 L 17.5625 17.910156 L 17.035156 18.542969 " fill-opacity="1" fill-rule="nonzero"/></g></g></g></g><g clip-path="url(#e571a6558e)"><g clip-path="url(#8582075700)"><g clip-path="url(#ff581d979f)"><g clip-path="url(#fbd814fc51)"><path fill="#1f3a68" d="M 15.800781 19.578125 L 9.550781 14.363281 C 9.53125 14.710938 9.53125 15.058594 9.511719 15.402344 L 14.886719 19.890625 C 15.191406 19.789062 15.496094 19.6875 15.800781 19.578125 " fill-opacity="1" fill-rule="nonzero"/></g></g></g></g><g clip-path="url(#c7986e1075)"><g clip-path="url(#194525ea1c)"><g clip-path="url(#586b338c53)"><g clip-path="url(#f2552943a3)"><path fill="#1f3a68" d="M 8.359375 29.171875 C 8.015625 28.886719 7.960938 28.382812 8.242188 28.046875 C 10.308594 25.570312 9.742188 22.96875 9.144531 20.214844 C 8.519531 17.351562 7.8125 14.101562 10.363281 11.046875 C 12.917969 7.988281 16.238281 8.101562 19.167969 8.203125 C 21.984375 8.300781 24.648438 8.390625 26.714844 5.917969 C 26.992188 5.582031 27.496094 5.542969 27.84375 5.832031 C 28.1875 6.117188 28.238281 6.621094 27.960938 6.957031 C 25.410156 10.011719 22.085938 9.898438 19.15625 9.796875 C 16.339844 9.699219 13.675781 9.609375 11.609375 12.085938 C 9.542969 14.5625 10.109375 17.164062 10.707031 19.917969 C 11.332031 22.785156 12.039062 26.03125 9.484375 29.089844 C 9.207031 29.421875 8.703125 29.460938 8.359375 29.171875 " fill-opacity="1" fill-rule="nonzero"/></g></g></g></g><g clip-path="url(#57ce2fe4f1)"><g clip-path="url(#0a28dcddfc)"><g clip-path="url(#ba31c05659)"><g clip-path="url(#9ea7e38dbc)"><path fill="#4eb1cb" d="M 1.246094 23.234375 C 0.902344 22.949219 0.847656 22.445312 1.128906 22.113281 C 3.679688 19.054688 7 19.167969 9.929688 19.269531 C 12.75 19.367188 15.410156 19.457031 17.476562 16.980469 C 19.542969 14.507812 18.976562 11.902344 18.378906 9.148438 C 17.757812 6.285156 17.050781 3.035156 19.601562 -0.0195312 C 19.878906 -0.355469 20.386719 -0.390625 20.730469 -0.105469 C 21.074219 0.183594 21.125 0.6875 20.847656 1.019531 C 18.78125 3.496094 19.347656 6.097656 19.945312 8.851562 C 20.570312 11.71875 21.273438 14.964844 18.722656 18.023438 C 16.171875 21.078125 12.851562 20.964844 9.921875 20.863281 C 7.101562 20.765625 4.441406 20.675781 2.375 23.152344 C 2.09375 23.484375 1.589844 23.523438 1.246094 23.234375 " fill-opacity="1" fill-rule="nonzero"/></g></g></g></g><g fill="#ffffff" fill-opacity="1"><g transform="translate(6.331148, 15.774196)"><g><path d="M 0.796875 0 L 0.765625 -0.140625 C 0.710938 -0.078125 0.660156 -0.0351562 0.609375 -0.015625 C 0.554688 0.00390625 0.492188 0.015625 0.421875 0.015625 C 0.316406 0.015625 0.234375 -0.0078125 0.171875 -0.0625 C 0.117188 -0.113281 0.09375 -0.1875 0.09375 -0.28125 C 0.09375 -0.488281 0.257812 -0.597656 0.59375 -0.609375 L 0.765625 -0.625 L 0.765625 -0.6875 C 0.765625 -0.769531 0.742188 -0.828125 0.703125 -0.859375 C 0.671875 -0.898438 0.617188 -0.921875 0.546875 -0.921875 C 0.460938 -0.921875 0.363281 -0.894531 0.25 -0.84375 L 0.203125 -0.96875 C 0.253906 -0.988281 0.3125 -1.003906 0.375 -1.015625 C 0.4375 -1.035156 0.5 -1.046875 0.5625 -1.046875 C 0.675781 -1.046875 0.765625 -1.019531 0.828125 -0.96875 C 0.890625 -0.914062 0.921875 -0.828125 0.921875 -0.703125 L 0.921875 0 Z M 0.453125 -0.109375 C 0.546875 -0.109375 0.617188 -0.132812 0.671875 -0.1875 C 0.734375 -0.238281 0.765625 -0.316406 0.765625 -0.421875 L 0.765625 -0.515625 L 0.609375 -0.5 C 0.484375 -0.5 0.390625 -0.476562 0.328125 -0.4375 C 0.273438 -0.40625 0.25 -0.351562 0.25 -0.28125 C 0.25 -0.226562 0.265625 -0.1875 0.296875 -0.15625 C 0.335938 -0.125 0.390625 -0.109375 0.453125 -0.109375 Z M 0.453125 -0.109375 "/></g></g></g></svg>