<svg xmlns="http://www.w3.org/2000/svg" xmlns:xlink="http://www.w3.org/1999/xlink" width="40" zoomAndPan="magnify" viewBox="0 0 30 30.000001" height="40" preserveAspectRatio="xMidYMid meet" version="1.0"><defs><g/><clipPath id="3497bdee78"><path d="M 0.484375 2.296875 L 29.515625 2.296875 L 29.515625 26.972656 L 0.484375 26.972656 Z M 0.484375 2.296875 " clip-rule="nonzero"/></clipPath></defs><g clip-path="url(#3497bdee78)"><path fill="#b8312f" d="M 18.566406 17.230469 L 26.613281 17.101562 C 22.375 23.003906 15 26.972656 15 26.972656 C 15 26.972656 7.523438 22.949219 3.296875 16.980469 L 6.011719 16.910156 L 6.449219 16.898438 L 6.65625 16.554688 L 7.617188 14.953125 L 9.050781 19.164062 L 9.710938 21.097656 L 10.238281 19.140625 L 12.394531 11.171875 L 14.164062 17.8125 L 14.347656 18.488281 L 14.714844 17.90625 L 16.699219 14.75 L 18.429688 17.160156 L 18.484375 17.238281 Z M 22.257812 2.296875 C 18.246094 2.296875 15 4.164062 15 7.949219 C 15 4.164062 11.753906 2.296875 7.742188 2.296875 C 3.730469 2.296875 0.484375 5.371094 0.484375 9.15625 C 0.484375 11.320312 1.164062 13.378906 2.226562 15.285156 L 5.601562 15.375 L 7.195312 12.90625 L 8.027344 11.625 L 8.472656 13.058594 L 9.636719 16.851562 L 11.949219 9.257812 L 12.457031 7.578125 L 12.84375 9.273438 L 14.597656 17 L 16.492188 14.234375 L 16.675781 13.960938 L 16.855469 14.226562 L 18.648438 16.886719 L 26.664062 17.015625 C 28.335938 14.660156 29.503906 11.996094 29.503906 9.160156 C 29.515625 5.371094 26.261719 2.296875 22.257812 2.296875 Z M 22.257812 2.296875 " fill-opacity="1" fill-rule="nonzero"/></g><g fill="#ffffff" fill-opacity="1"><g transform="translate(9.089213, 18.072584)"><g><path d="M 0.796875 0 L 0.765625 -0.140625 C 0.710938 -0.078125 0.660156 -0.0351562 0.609375 -0.015625 C 0.554688 0.00390625 0.492188 0.015625 0.421875 0.015625 C 0.316406 0.015625 0.234375 -0.0078125 0.171875 -0.0625 C 0.117188 -0.113281 0.09375 -0.1875 0.09375 -0.28125 C 0.09375 -0.488281 0.257812 -0.597656 0.59375 -0.609375 L 0.765625 -0.625 L 0.765625 -0.6875 C 0.765625 -0.769531 0.742188 -0.828125 0.703125 -0.859375 C 0.671875 -0.898438 0.617188 -0.921875 0.546875 -0.921875 C 0.460938 -0.921875 0.363281 -0.894531 0.25 -0.84375 L 0.203125 -0.96875 C 0.253906 -0.988281 0.3125 -1.003906 0.375 -1.015625 C 0.4375 -1.035156 0.5 -1.046875 0.5625 -1.046875 C 0.675781 -1.046875 0.765625 -1.019531 0.828125 -0.96875 C 0.890625 -0.914062 0.921875 -0.828125 0.921875 -0.703125 L 0.921875 0 Z M 0.453125 -0.109375 C 0.546875 -0.109375 0.617188 -0.132812 0.671875 -0.1875 C 0.734375 -0.238281 0.765625 -0.316406 0.765625 -0.421875 L 0.765625 -0.515625 L 0.609375 -0.5 C 0.484375 -0.5 0.390625 -0.476562 0.328125 -0.4375 C 0.273438 -0.40625 0.25 -0.351562 0.25 -0.28125 C 0.25 -0.226562 0.265625 -0.1875 0.296875 -0.15625 C 0.335938 -0.125 0.390625 -0.109375 0.453125 -0.109375 Z M 0.453125 -0.109375 "/></g></g></g></svg>